<?xml version="1.0" encoding="utf-8"?>
<!-- Generator: Adobe Illustrator 24.3.0, SVG Export Plug-In . SVG Version: 6.00 Build 0)  -->
<svg version="1.1" id="Layer_1" xmlns="http://www.w3.org/2000/svg" xmlns:xlink="http://www.w3.org/1999/xlink" x="0px" y="0px"
	 viewBox="0 0 150 150" style="enable-background:new 0 0 150 150;" xml:space="preserve">
<style type="text/css">
	.st0{fill:#ffffff;}
</style>
<g>
	<circle class="st0" cx="75" cy="75.4" r="18.2"/>
	<path class="st0" d="M98.4,31.4H51.7C40.3,31.4,31,40.7,31,52.1v46.7c0,11.4,9.3,20.7,20.7,20.7h46.6c11.4,0,20.7-9.3,20.7-20.7
		h0.1V52.1C119.1,40.7,109.8,31.4,98.4,31.4z M75,103.4c-15.5,0-28-12.5-28-28s12.5-28,28-28s28,12.5,28,28S90.5,103.4,75,103.4z
		 M103.9,52.9c-3.6,0-6.5-2.9-6.5-6.5c0-3.6,2.9-6.5,6.5-6.5s6.5,2.9,6.5,6.5C110.4,50,107.5,52.9,103.9,52.9z"/>
	<path class="st0" d="M115.1,1H34.9C16.2,1,1,16.2,1,34.9v80.2C1,133.8,16.2,149,34.9,149h80.2c18.6,0,33.9-15.2,33.9-33.9V34.9
		C149,16.2,133.8,1,115.1,1z M129,98c0,17.3-14,31.2-31.2,31.2H52.2c-17.3,0-31.2-14-31.2-31.2V52.4c0-17.2,14-31.2,31.2-31.2h45.6
		c17.2,0,31.2,14,31.2,31.2V98z"/>
</g>
</svg>
