<?xml version="1.0" encoding="utf-8"?>
<!-- Generator: Adobe Illustrator 26.3.1, SVG Export Plug-In . SVG Version: 6.00 Build 0)  -->
<svg version="1.1" id="Layer_1" xmlns="http://www.w3.org/2000/svg" xmlns:xlink="http://www.w3.org/1999/xlink" x="0px" y="0px"
	 viewBox="0 0 500 500" style="enable-background:new 0 0 500 500;" xml:space="preserve">
<style type="text/css">
	.st0{fill:#FFFFFF;}
</style>
<g>
	<path class="st0" d="M401.62,98.38c-40.5-40.5-94.35-62.8-151.62-62.8c-57.28,0-111.12,22.3-151.62,62.8
		c-40.5,40.5-62.8,94.35-62.8,151.62c0,57.28,22.3,111.12,62.8,151.62c40.5,40.5,94.35,62.8,151.62,62.8
		c57.28,0,111.12-22.3,151.62-62.8s62.8-94.35,62.8-151.62C464.43,192.72,442.12,138.88,401.62,98.38z M250,437.79
		c-103.55,0-187.79-84.24-187.79-187.79S146.45,62.21,250,62.21S437.79,146.45,437.79,250S353.55,437.79,250,437.79z"/>
	<path class="st0" d="M356.19,143.9c-9-9-23.58-9-32.58,0l-73.53,73.53l-73.7-73.7c-9-9-23.58-9-32.58,0c-9,9-9,23.58,0,32.58
		l73.7,73.7l-73.7,73.7c-9,9-9,23.58,0,32.58c4.5,4.5,10.39,6.75,16.29,6.75s11.79-2.25,16.29-6.75l73.7-73.7l73.53,73.53
		c4.5,4.5,10.39,6.75,16.29,6.75s11.79-2.25,16.29-6.75c9-9,9-23.58,0-32.58L282.66,250l73.53-73.53
		C365.19,167.48,365.19,152.89,356.19,143.9z"/>
</g>
</svg>
