<?xml version="1.0" encoding="utf-8"?>
<!-- Generator: Adobe Illustrator 24.3.0, SVG Export Plug-In . SVG Version: 6.00 Build 0)  -->
<svg version="1.1" id="Layer_1" xmlns="http://www.w3.org/2000/svg" xmlns:xlink="http://www.w3.org/1999/xlink" x="0px" y="0px"
	 viewBox="0 0 596.9 105.9" style="enable-background:new 0 0 596.9 105.9;" xml:space="preserve">
<style type="text/css">
	.st0{fill:none;}
	.st1{fill:#20272B;}
	.st2{fill:#1E43F9;}
	
		.st3{fill:none;stroke:#819AF2;stroke-width:2.3305;stroke-linecap:round;stroke-linejoin:round;stroke-miterlimit:10;stroke-dasharray:5.8263;}
</style>
<g>
	<path class="st1" d="M31.1,49.9c-4.5-1.8-5.9-3-5.9-5.4c0-1.8,1.4-3.9,5.2-3.9c2.6,0,4.6,0.8,5.8,1.4l1.1,0.6l0.4-1.2l1.2-3.5
		l0.3-0.8l-0.8-0.4c-1.2-0.7-3.7-1.8-7.8-1.8c-3.4,0-6.3,1-8.4,2.8s-3.3,4.4-3.3,7.2c0,2.5,0.9,4.7,2.6,6.5c1.5,1.6,3.8,2.8,6.8,3.9
		c4.6,1.8,5.6,3.4,5.6,5.6c0,1.3-0.5,2.5-1.4,3.3c-1,0.9-2.6,1.3-4.4,1.3c-2.4,0-5.1-0.8-7.1-2l-1.2-0.7l-0.4,1.3l-1.1,3.6l-0.2,0.7
		l0.6,0.4c2,1.3,5.7,2.3,9,2.3c3.9,0,7.2-1.1,9.4-3.1c2.1-1.9,3.2-4.5,3.2-7.5C40.2,55.5,37.5,52.3,31.1,49.9z"/>
	<path class="st1" d="M59,35H48.8h-1v1v34v1h1h3.5h1v-1V55.7h5.6c2.8,0,5.3-1.1,7.3-3c1.9-1.9,3-4.5,3-7.3s-1.1-5.3-3-7.3
		C64.4,36.1,61.8,35,59,35z M59,50h-5.6v-9.4H59c2.6,0,4.7,2.1,4.7,4.7S61.6,50,59,50z"/>
	<polygon class="st1" points="81.6,65.5 81.6,55.8 92,55.8 93,55.8 93,54.8 93,51.2 93,50.2 92,50.2 81.6,50.2 81.6,40.6 92,40.6 
		93,40.6 93,39.6 93,36 93,35 92,35 76.6,35 75.5,35 75.5,36 75.5,70 75.5,71.1 76.6,71.1 94.1,71.1 95.2,71.1 95.2,70 95.2,66.5 
		95.2,65.5 94.1,65.5 	"/>
	<polygon class="st1" points="107.3,65.5 107.3,55.8 117.7,55.8 118.7,55.8 118.7,54.8 118.7,51.2 118.7,50.2 117.7,50.2 
		107.3,50.2 107.3,40.6 117.7,40.6 118.7,40.6 118.7,39.6 118.7,36 118.7,35 117.7,35 102.3,35 101.3,35 101.3,36 101.3,70 
		101.3,71.1 102.3,71.1 119.9,71.1 120.9,71.1 120.9,70 120.9,66.5 120.9,65.5 119.9,65.5 	"/>
	<path class="st1" d="M149.8,60.2l-0.9-0.6l-0.6,0.9c-2,2.8-5,4.4-8.1,4.4c-5.8,0-10.4-5.3-10.4-11.9s4.7-12,10.4-12
		c3.1,0,6,1.5,8,4.2l0.6,0.8l0.8-0.6l3.2-2.4l0.8-0.6l-0.6-0.8c-3.1-4.2-7.8-6.6-12.8-6.6c-2.3,0-4.5,0.5-6.5,1.5
		c-2,0.9-3.7,2.2-5.2,3.9c-3,3.4-4.7,7.8-4.7,12.6s1.7,9.2,4.7,12.6c1.5,1.7,3.3,3,5.2,3.9c2.1,1,4.3,1.5,6.5,1.5
		c2.6,0,5.1-0.6,7.4-1.9c2.2-1.2,4.1-2.9,5.6-5l0.6-0.9l-0.9-0.6L149.8,60.2z"/>
	<polygon class="st1" points="177.3,35 176.3,35 176.3,36 176.3,52 164.8,52 164.8,36 164.8,35 163.7,35 159.8,35 158.7,35 
		158.7,36 158.7,70 158.7,71.1 159.8,71.1 163.7,71.1 164.8,71.1 164.8,70 164.8,58.1 176.3,58.1 176.3,70 176.3,71.1 177.3,71.1 
		181.3,71.1 182.3,71.1 182.3,70 182.3,36 182.3,35 181.3,35 	"/>
	<polygon class="st1" points="282.1,34.9 281,34.9 281,36 281,40 281,41 282.1,41 291.3,41 291.3,70 291.3,71.1 292.4,71.1 
		296.3,71.1 297.4,71.1 297.4,70 297.4,41 306.6,41 307.7,41 307.7,40 307.7,36 307.7,34.9 306.6,34.9 	"/>
	<polygon class="st1" points="315.1,34.9 314,34.9 314,36 314,40 314,41 315.1,41 324.3,41 324.3,70 324.3,71.1 325.4,71.1 
		329.4,71.1 330.4,71.1 330.4,70 330.4,41 339.7,41 340.8,41 340.8,40 340.8,36 340.8,34.9 339.7,34.9 	"/>
	<path class="st1" d="M390.9,54.4c0.9-0.5,1.7-1.1,2.4-1.8c2-1.9,3-4.5,3-7.3s-1.1-5.4-3-7.3c-2-2-4.6-3.1-7.3-3.1h-13.8h-1.1V36v34
		v1.1h1.1h3.5h1.1V70V55.6h5.7c2.2,0,2.6,0.7,3.3,2c0.1,0.1,0.1,0.3,0.2,0.4c0.6,1.1,4.2,8.2,6.4,12.4l0.3,0.6h0.6h4.4h1.7l-0.8-1.5
		L390.9,54.4z M376.8,40.6h9.2c2.6,0,4.7,2.1,4.7,4.7c0,2.6-2.1,4.7-4.7,4.7h-9.2V40.6z"/>
	<polygon class="st1" points="238.5,36.6 238.4,35.7 237.5,35.7 234.2,35.7 233.5,35.7 233.2,36.4 226.5,52.6 219.7,36.3 
		219.4,35.7 218.7,35.7 215.5,35.7 214.6,35.7 214.4,36.6 209.1,70 208.9,71.2 210.1,71.2 213.4,71.2 214.3,71.2 214.4,70.3 
		218.2,46.9 225.5,64.2 226.5,66.6 227.4,64.2 234.7,46.9 238.6,70.3 238.7,71.2 239.6,71.2 242.8,71.2 244.1,71.2 243.9,70 	"/>
	<polygon class="st1" points="351.5,65.4 351.5,55.8 361.9,55.8 362.9,55.8 362.9,54.7 362.9,51.2 362.9,50.1 361.9,50.1 
		351.5,50.1 351.5,40.6 361.9,40.6 362.9,40.6 362.9,39.5 362.9,36 362.9,35 361.9,35 346.5,35 345.4,35 345.4,36 345.4,70 
		345.4,71.1 346.5,71.1 364.1,71.1 365.1,71.1 365.1,70 365.1,66.5 365.1,65.4 364.1,65.4 	"/>
	<path class="st1" d="M415.4,49.8c-4.5-1.8-5.9-3-5.9-5.4c0-1.8,1.4-3.9,5.2-3.9c2.6,0,4.6,0.8,5.8,1.4l1.1,0.6l0.4-1.2l1.2-3.5
		l0.3-0.8l-0.8-0.4c-1.2-0.7-3.7-1.8-7.8-1.8c-3.4,0-6.3,1-8.4,2.8s-3.3,4.4-3.3,7.2c0,2.5,0.9,4.7,2.6,6.5c1.5,1.6,3.8,2.8,6.8,3.9
		c4.6,1.8,5.6,3.4,5.6,5.6c0,1.3-0.5,2.5-1.4,3.3c-1,0.9-2.6,1.3-4.4,1.3c-2.4,0-5.1-0.8-7.1-2l-1.2-0.7l-0.4,1.3l-1.1,3.6l-0.2,0.7
		l0.6,0.4c2,1.3,5.7,2.3,9,2.3c3.9,0,7.2-1.1,9.4-3.1c2.1-1.9,3.2-4.5,3.2-7.5C424.5,55.5,421.8,52.3,415.4,49.8z"/>
	<path class="st1" d="M280.3,69.7l-12.4-33.6l-0.3-0.7h-0.7h-4.5h-0.7l-0.3,0.7L249,69.7l-0.5,1.4h1.5h4.2h0.7l0.3-0.7l3.3-8.8H271
		l3.2,8.8l0.3,0.7h0.7h4.2h1.5L280.3,69.7z M260.2,56.7l4.5-12l4.4,12H260.2z"/>
	<g>
		<path class="st2" d="M526.3,21c-29.1,0-52.7,13.4-52.7,29.9c0,9.3,7.4,17.6,19.1,23c-1.5,5.8-4.8,14.5-11.7,16.9
			c0,0,15-2.4,22.8-12.9c6.8,1.8,14.4,2.8,22.4,2.8c29.1,0,52.7-13.4,52.7-29.9S555.4,21,526.3,21z"/>
		<path class="st3" d="M508.2,15c-29.1,0-52.7,13.4-52.7,29.9c0,9.3,7.4,17.6,19.1,23c-1.5,5.8-4.8,14.5-11.7,16.9
			c0,0,15-2.4,22.8-12.9c6.8,1.8,14.4,2.8,22.4,2.8c29.1,0,52.7-13.4,52.7-29.9S537.3,15,508.2,15z"/>
	</g>
</g>
</svg>
