<?xml version="1.0" encoding="utf-8"?>
<!-- Generator: Adobe Illustrator 24.3.0, SVG Export Plug-In . SVG Version: 6.00 Build 0)  -->
<svg version="1.1" id="Layer_1" xmlns="http://www.w3.org/2000/svg" xmlns:xlink="http://www.w3.org/1999/xlink" x="0px" y="0px"
	 viewBox="0 0 150 150" style="enable-background:new 0 0 150 150;" xml:space="preserve">
<style type="text/css">

</style>
<path class="fill-primary" d="M141.5,3h-11.9H20.4H8.5C8.3,3,8,3,7.8,3c0,0-0.1,0-0.1,0c-0.2,0-0.3,0-0.5,0.1c0,0-0.1,0-0.1,0
	c-0.2,0-0.4,0.1-0.5,0.1c0,0-0.1,0-0.1,0C6.2,3.4,6.1,3.4,5.9,3.5c-0.1,0-0.1,0.1-0.2,0.1C5.6,3.7,5.4,3.7,5.3,3.8
	c-0.1,0-0.2,0.1-0.3,0.2C5,4,4.9,4.1,4.8,4.1C4.7,4.2,4.6,4.3,4.5,4.4c-0.1,0-0.1,0.1-0.2,0.1C4.1,4.6,4,4.7,3.9,4.8
	c0,0-0.1,0.1-0.1,0.1c-1.2,1.2-2,2.9-2,4.7v118.8l0,11.9c0,0.2,0,0.3,0,0.5c0,0.1,0,0.2,0,0.2c0,0.2,0,0.4,0.1,0.5c0,0,0,0.1,0,0.1
	c0,0.2,0.1,0.4,0.1,0.6c0,0,0,0,0,0.1c0.1,0.2,0.1,0.4,0.2,0.5c0,0,0,0,0,0.1c0.1,0.2,0.1,0.3,0.2,0.5c0,0,0,0.1,0.1,0.1
	c0.1,0.1,0.2,0.3,0.3,0.4c0,0,0.1,0.1,0.1,0.1c0.1,0.1,0.2,0.2,0.2,0.3c0,0.1,0.1,0.1,0.1,0.2c0.1,0.1,0.2,0.2,0.2,0.3
	c0.1,0.1,0.1,0.1,0.2,0.2c0.1,0.1,0.1,0.1,0.2,0.2c0.1,0.1,0.2,0.2,0.3,0.2c0.1,0,0.1,0.1,0.2,0.1c0.1,0.1,0.2,0.2,0.3,0.3
	c0,0,0.1,0.1,0.1,0.1c0.1,0.1,0.3,0.2,0.4,0.3c0,0,0,0,0,0c0.2,0.1,0.4,0.2,0.5,0.3c0,0,0,0,0,0c0.2,0.1,0.4,0.2,0.6,0.2
	c0,0,0.1,0,0.1,0c0.2,0,0.3,0.1,0.5,0.1c0.1,0,0.3,0,0.4,0.1c0.1,0,0.2,0,0.2,0c0.2,0,0.5,0,0.7,0h73.9V89.2H63.3V69.3h19.1V47.6
	c0-13,11.8-21.7,21.2-21.7h21.3v18.1h-9.8c-4.9,0-11.3,3.9-11.3,8.8v16.4H123v19.9h-19.2V147h25.8h11.9c3.7,0,6.7-3,6.7-6.7V9.7
	C148.2,6,145.2,3,141.5,3z"/>
</svg>
