<?xml version="1.0" encoding="UTF-8"?>
<svg id="Layer_1" data-name="Layer 1" xmlns="http://www.w3.org/2000/svg" version="1.1" viewBox="0 0 336 105.9">
  <defs>
    <style>
      .cls-1 {
        fill: #004c56;
        stroke-width: 0px;
      }
    </style>
  </defs>
  <g>
    <path class="cls-1" d="M32.3,76.9v19.4h-1.2l-14.2-17v17h-1.4v-19.4h1.2l14.2,17v-17h1.4Z"/>
    <path class="cls-1" d="M44.8,96.4v-2.1h0c-.6.9-1.2,1.5-1.8,1.8-.6.4-1.4.5-2.3.5-1.3,0-2.4-.4-3.3-1.3-.9-.9-1.3-2.2-1.3-3.8v-7.9h1.3v7.9c0,1.2.3,2.1.9,2.8s1.4,1,2.4,1,1.6-.2,2.2-.6c.6-.4,1.2-1.1,1.8-2.1v-9h1.3v12.8h-1.3Z"/>
    <path class="cls-1" d="M52,79.3v4.2h3.5v1.1h-3.5v7.6c0,1.2,0,2,.3,2.4s.7.6,1.5.6,1.4-.2,2.2-.6v1.3c-.9.4-1.7.7-2.5.7s-1.5-.2-2-.7c-.5-.5-.8-1.1-.8-2v-9.2h-3.3v-1.1h3.3v-3l.9-1.2h.4Z"/>
    <path class="cls-1" d="M66.4,84.8l-.8,1.3c-1-1-1.9-1.5-2.5-1.5-1.2,0-2.5,1.2-4,3.7v8h-1.3v-12.8h1.3v3.4h0c1.5-2.4,2.9-3.6,4.3-3.6s1.7.5,2.8,1.5Z"/>
    <path class="cls-1" d="M69.2,76.9v2.3h-1.3v-2.3h1.3ZM69.2,83.6v12.8h-1.3v-12.8h1.3Z"/>
    <path class="cls-1" d="M75.3,79.3v4.2h3.5v1.1h-3.5v7.6c0,1.2,0,2,.3,2.4s.7.6,1.5.6,1.4-.2,2.2-.6v1.3c-.9.4-1.7.7-2.5.7s-1.5-.2-2-.7c-.5-.5-.8-1.1-.8-2v-9.2h-3.3v-1.1h3.3v-3l.9-1.2h.4Z"/>
    <path class="cls-1" d="M82.7,76.9v2.3h-1.3v-2.3h1.3ZM82.7,83.6v12.8h-1.3v-12.8h1.3Z"/>
    <path class="cls-1" d="M92,83.3c1.8,0,3.3.6,4.5,1.9,1.2,1.3,1.8,2.9,1.8,4.8s-.6,3.5-1.8,4.7c-1.2,1.3-2.7,1.9-4.5,1.9s-3.3-.6-4.5-1.9c-1.2-1.3-1.8-2.8-1.8-4.7s.6-3.5,1.8-4.8c1.2-1.3,2.7-1.9,4.5-1.9ZM92,95.3c1.4,0,2.5-.5,3.5-1.5.9-1,1.4-2.3,1.4-3.8s-.5-2.8-1.4-3.8c-.9-1-2.1-1.5-3.5-1.5s-2.6.5-3.5,1.5c-.9,1-1.4,2.3-1.4,3.8s.5,2.8,1.4,3.8c.9,1,2.1,1.5,3.5,1.5Z"/>
    <path class="cls-1" d="M102.5,83.6v2.2h0c1-1.7,2.4-2.5,4.1-2.5s2.5.5,3.3,1.4c.8.9,1.2,2.2,1.2,3.9v7.8h-1.3v-7.3c0-2.9-1.1-4.4-3.3-4.4s-3,.9-4,2.7v9h-1.3v-12.8h1.3Z"/>
    <path class="cls-1" d="M134.4,86.7h1.5c-.6,1.9-1.4,3.7-2.6,5.5l3.8,4.2h-1.9l-2.8-3c-1.8,2.2-4,3.3-6.4,3.3s-2.6-.4-3.5-1.3c-.9-.8-1.3-2-1.3-3.3,0-2.5,1.5-4.5,4.6-5.9-1.6-1.7-2.3-3.2-2.3-4.5s.4-2.2,1.3-3c.9-.8,1.9-1.2,3.2-1.2s2.2.4,2.9,1.1,1.2,1.7,1.2,2.9c0,2.1-1.3,3.8-3.9,5.1l4.2,4.6c.9-1.3,1.5-2.8,2.1-4.4ZM131.6,92.2l-4.7-5.1c-1.4.6-2.4,1.3-3.1,2-.6.7-1,1.6-1,2.7s.3,1.9,1,2.5,1.5.9,2.7.9c1.9,0,3.6-1,5.2-3ZM127.2,85.4c2.3-1,3.5-2.3,3.5-4s-.3-1.4-.8-2c-.5-.5-1.2-.8-2-.8s-1.5.3-2.1.8c-.6.5-.9,1.2-.9,2,0,1.2.8,2.5,2.3,4Z"/>
    <path class="cls-1" d="M162.6,76.9v19.4h-1.5v-9.2h-12.5v9.2h-1.4v-19.4h1.4v9h12.5v-9h1.5Z"/>
    <path class="cls-1" d="M172.2,83.3c1.8,0,3.3.6,4.5,1.9,1.2,1.3,1.8,2.9,1.8,4.8s-.6,3.5-1.8,4.7c-1.2,1.3-2.7,1.9-4.5,1.9s-3.3-.6-4.5-1.9c-1.2-1.3-1.8-2.8-1.8-4.7s.6-3.5,1.8-4.8c1.2-1.3,2.7-1.9,4.5-1.9ZM172.2,95.3c1.4,0,2.5-.5,3.5-1.5.9-1,1.4-2.3,1.4-3.8s-.5-2.8-1.4-3.8c-.9-1-2.1-1.5-3.5-1.5s-2.6.5-3.5,1.5c-.9,1-1.4,2.3-1.4,3.8s.5,2.8,1.4,3.8c.9,1,2.1,1.5,3.5,1.5Z"/>
    <path class="cls-1" d="M182.9,76.9v19.4h-1.3v-19.4h1.3Z"/>
    <path class="cls-1" d="M188,76.9v2.3h-1.3v-2.3h1.3ZM188,83.6v12.8h-1.3v-12.8h1.3Z"/>
    <path class="cls-1" d="M198.4,84.4v1.5c-1.2-.9-2.4-1.3-3.4-1.3s-1.4.2-1.9.6c-.5.4-.8.9-.8,1.5s.2.8.5,1.2,1.2.8,2.6,1.4c1.4.6,2.3,1.1,2.7,1.7s.6,1.3.6,2-.4,1.8-1.2,2.5c-.8.7-1.7,1-2.9,1s-2.5-.4-3.7-1.2v-1.3c1.5.8,2.7,1.2,3.9,1.2s1.4-.2,1.9-.6c.5-.4.7-1,.7-1.6s-.2-.9-.5-1.2c-.3-.4-1.2-.9-2.6-1.4-1.4-.6-2.3-1.1-2.7-1.7-.4-.6-.6-1.2-.6-1.9,0-1,.4-1.8,1.2-2.5.8-.7,1.7-1,2.8-1s2.1.4,3.3,1.1Z"/>
    <path class="cls-1" d="M203.7,79.3v4.2h3.5v1.1h-3.5v7.6c0,1.2,0,2,.3,2.4s.7.6,1.5.6,1.4-.2,2.2-.6v1.3c-.9.4-1.7.7-2.5.7s-1.5-.2-2-.7c-.5-.5-.8-1.1-.8-2v-9.2h-3.3v-1.1h3.3v-3l.9-1.2h.4Z"/>
    <path class="cls-1" d="M211.2,76.9v2.3h-1.3v-2.3h1.3ZM211.2,83.6v12.8h-1.3v-12.8h1.3Z"/>
    <path class="cls-1" d="M223.5,83.9v1.5c-1.2-.5-2.2-.8-3.2-.8-1.4,0-2.5.5-3.4,1.5s-1.3,2.3-1.3,3.9.4,2.9,1.3,3.8,2,1.4,3.5,1.4,2.2-.2,3.3-.7v1.4c-1.2.4-2.4.7-3.4.7-1.8,0-3.3-.6-4.4-1.8-1.1-1.2-1.7-2.7-1.7-4.7s.6-3.7,1.7-4.9,2.6-1.9,4.3-1.9,2,.2,3.3.6Z"/>
    <path class="cls-1" d="M249.7,76.9v19.4h-1.5v-9.2h-12.5v9.2h-1.4v-19.4h1.4v9h12.5v-9h1.5Z"/>
    <path class="cls-1" d="M264.1,89.5h-9.7c0,.2,0,.4,0,.7,0,1.4.5,2.6,1.5,3.6s2.1,1.5,3.5,1.5,3.1-.6,4.6-1.9v1.5c-1.4,1.1-3,1.7-4.7,1.7s-3.2-.6-4.4-1.9c-1.2-1.3-1.7-2.9-1.7-4.9s.5-3.4,1.6-4.7c1.1-1.2,2.4-1.8,4-1.8s2.8.6,3.9,1.7c1.1,1.1,1.6,2.6,1.6,4.5ZM254.5,88.4h8c-.5-2.5-1.8-3.7-3.9-3.7s-1.9.3-2.6,1c-.7.7-1.2,1.6-1.5,2.8Z"/>
    <path class="cls-1" d="M276.5,94.1v1.1c-1.1.9-2,1.3-2.5,1.3s-.5-.1-.6-.3-.2-.6-.3-1.3c-1.3,1.1-2.6,1.6-3.9,1.6s-1.7-.3-2.4-.9c-.6-.6-1-1.4-1-2.3,0-1.4.6-2.5,1.9-3.3s3-1.3,5.3-1.4v-1.6c0-1.7-.9-2.6-2.7-2.6s-2.4.5-3.8,1.6v-1.4c1.4-.9,2.7-1.4,4-1.4s2,.3,2.8.9c.7.6,1.1,1.4,1.1,2.5v8c0,.4,0,.7.3.7s.8-.4,1.8-1.1ZM273.2,93.8v-4c-1.7,0-3.1.2-4.2.9-1.1.7-1.7,1.6-1.7,2.6s.2,1.1.7,1.5c.5.4,1,.6,1.7.6,1.1,0,2.3-.6,3.4-1.7Z"/>
    <path class="cls-1" d="M279.9,76.9v19.4h-1.3v-19.4h1.3Z"/>
    <path class="cls-1" d="M286,79.3v4.2h3.5v1.1h-3.5v7.6c0,1.2,0,2,.3,2.4.2.4.7.6,1.5.6s1.4-.2,2.2-.6v1.3c-.9.4-1.7.7-2.5.7s-1.5-.2-2-.7c-.5-.5-.8-1.1-.8-2v-9.2h-3.3v-1.1h3.3v-3l.9-1.2h.4Z"/>
    <path class="cls-1" d="M293.2,76.9v8.9h0c1-1.7,2.4-2.5,4.1-2.5s2.5.5,3.3,1.4c.8.9,1.2,2.2,1.2,3.8v7.8h-1.3v-7.3c0-2.9-1.1-4.4-3.3-4.4s-2.9.9-4,2.7v9h-1.3v-19.4h1.3Z"/>
  </g>
  <g>
    <path class="cls-1" d="M25.4,28h3.7c4.3,0,7.7-.3,8.9-4.9h2.1c-.4,2.3-.6,4.6-.6,6.7s.3,4.6.6,6.6h-2.2c-1.6-4.4-3.9-4.9-8.7-4.9h-3.8v8.2c0,4.6.3,7.2,1.3,8.7.7,1.2,2,1.7,4.3,1.7,7.7,0,12-3.8,14.8-10l2.2,1.2c-2.2,4.8-3.3,8.3-4.3,12.2-3.7-.4-8.9-.6-13.6-.6h-8.2c-2.9,0-6.8,0-9.5.2v-1.6c4-.5,5.2-3.3,5.2-11.4v-17.9c0-8.2-1.2-10.9-5.2-11.5v-1.6c2.3.1,5.2.2,8.7.2h8.7c5.2,0,8.8,0,12.7-.4,0,3.7.6,7.5,1.4,11.1l-2,.7c-2.2-6.4-5.2-8.3-14.2-8.3h-2.3v15.7Z"/>
    <path class="cls-1" d="M88.7,21.4c1.6-4,3.2-8.1,4.3-12.3,1.8.2,4.1.4,6.5.4s4.6-.2,6.3-.4v1.5c-3.3.5-4.2,4.4-4.2,7.8s.1,4.5.4,7.6l.7,11.1c.7,9.5,1.9,13.6,5.7,14.5v1.4c-2.2-.2-4.7-.4-8.2-.4s-6.6.2-9.1.4v-1.5c3-.5,4.5-2.7,4.5-6.6s0-3.7-.2-5.4l-1.4-21.3-7.8,19c-2.2,5.1-4,10.4-5.3,15.8h-5.5l-13.3-34.8-1.4,19.8c-.1,2-.2,4-.2,5.6,0,4.7,1,7,5,7.8v1.5c-2.1-.2-4.8-.4-7.6-.4s-5.2.2-7.6.4v-1.5c4.5-.3,5.9-3.8,6.5-12.9l1.3-16.8c.1-2.2.2-3.8.2-4.8,0-4.2-1-5.9-4.2-6.3v-1.5c2.1.3,4.3.4,6.7.4s4.4-.1,6.6-.4c.8,3.7,2,7.4,3.3,11l8.7,23.3,9.2-22Z"/>
    <path class="cls-1" d="M148.5,41.1c0,8.7-6.6,11.9-15.2,11.9s-8.4-.4-11.5-.4-5.7,0-8.7.4v-1.6c4.1-.3,5.2-3.8,5.2-11.4v-17.9c0-7.6-1-11-5.2-11.5v-1.6c2.4.3,4.8.4,8.6.4s7.4-.4,11.3-.4c7.8,0,13.6,1.8,13.6,8.9s-4.7,10.1-11.4,11.3c8,1,13.4,3.7,13.4,11.8ZM127.9,28.4c7,0,10.4-2.8,10.4-8.4s-2.9-8-8.1-8-3.2.3-4.2.8v15.5c.8.1,1.2.1,1.9.1ZM126,39.6c0,3.1,0,6.1.9,7.8.6,1.9,1.9,2.7,4.7,2.7,5.8,0,8.4-2.7,8.4-8.6s-4.2-10.4-12.2-10.4-.9,0-1.8,0v8.4Z"/>
    <path class="cls-1" d="M167.6,40c0,8.2,1.1,10.9,5.2,11.4v1.6c-2.7-.3-5.9-.4-9.3-.4s-6.5.1-9,.4v-1.6c4-.5,5.3-3.2,5.3-11.4v-17.9c0-8.2-1.2-10.9-5.3-11.5v-1.6c2.2.3,5.2.4,8.3.4s7.5-.4,11.9-.4c8.3,0,14,2.3,14,10.1s-3.7,9.6-10.8,11.2c3.3.7,5.2,2.7,7,5.9l4.4,7.1c2.2,3.6,4.5,7.2,7.9,8.2v1.4h-8.3c-3,0-3.3,0-4.6-2.3l-7.7-12.8c-1.5-2.5-3.8-5.7-5.4-6.7-1.1,0-2.6,0-3.7-.3v9.1ZM171.2,28.5c5.9,0,9.3-2.9,9.3-8.2s-3.3-8.4-8.9-8.4-3.2.3-3.9.7v15.5c1,.3,2,.4,3.6.4Z"/>
    <path class="cls-1" d="M208.5,38.3l-1.5,4.1c-.7,2-1,3.5-1,4.7,0,2.7,1.4,4,4.4,4.3v1.6c-2.5-.3-4.4-.4-7.2-.4s-4.4,0-7.3.4v-1.3c3.3-.6,5.6-5.2,8.2-11.7l7.7-20c1.6-4,1.7-4.8,1.7-6,0-2-1.4-2.9-4.4-3.1v-1.6c1.2,0,2.3.1,3.8.1,2.8,0,5.5-.2,8.6-.7.7,2.6,1.9,6.4,3,9.3l8.9,23c2.2,5.8,4.4,9.6,7,10.7v1.3c-3.1-.3-5.4-.4-8.8-.4s-5.4,0-8.6.4v-1.6c2.6-.2,4.3-1,4.3-3.7s-.6-3.5-1.4-5.5l-1.4-3.8h-15.9ZM216.4,17.7l-6.6,17.2h13.2l-6.7-17.2Z"/>
    <path class="cls-1" d="M275.4,22.5c-1.8-7.3-5.5-10.9-11.5-10.9-8.5,0-13.6,7-13.6,19.3s3.8,19.6,13.2,19.6,11.9-3.8,15.7-11.5l2.3,1c-1.6,4-2.4,6.8-3.1,11-4.2,1.5-9.9,2.4-15.4,2.4-14.5,0-21.5-7-21.5-21.6s7.9-23.2,23.3-23.2,8.5.5,12.8,1.7c-.3,2.4-.3,3.7-.3,5.7s0,3.7.3,6.4h-2.3Z"/>
    <path class="cls-1" d="M298.6,28h3.7c4.3,0,7.7-.3,8.9-4.9h2.1c-.4,2.3-.6,4.6-.6,6.7s.3,4.6.6,6.6h-2.2c-1.6-4.4-3.9-4.9-8.7-4.9h-3.8v8.2c0,4.6.3,7.2,1.3,8.7.7,1.2,2,1.7,4.3,1.7,7.7,0,12-3.8,14.8-10l2.2,1.2c-2.2,4.8-3.3,8.3-4.3,12.2-3.7-.4-8.9-.6-13.6-.6h-8.2c-2.9,0-6.8,0-9.5.2v-1.6c4-.5,5.2-3.3,5.2-11.4v-17.9c0-8.2-1.2-10.9-5.2-11.5v-1.6c2.3.1,5.2.2,8.7.2h8.7c5.2,0,8.8,0,12.7-.4,0,3.7.6,7.5,1.4,11.1l-2,.7c-2.2-6.4-5.2-8.3-14.2-8.3h-2.3v15.7Z"/>
  </g>
</svg>