<?xml version="1.0" encoding="UTF-8"?>
<svg id="Layer_1" data-name="Layer 1" xmlns="http://www.w3.org/2000/svg" version="1.1" viewBox="0 0 248 300">
  <defs>
    <style>
      .cls-1 {
        fill: #fffaf1;
      }

      .cls-1, .cls-2 {
        stroke-width: 0px;
      }

      .cls-2 {
        fill: #004c56;
      }
    </style>
  </defs>
  <path class="cls-1" d="M239.1,119.1v-1.6c-2.9-61.6-53.4-109.9-115.1-109.9S11.7,55.8,8.9,117.4v1.1s0,62.5,0,62.5v1.6c2.9,61.6,53.4,109.9,115.1,109.9s112.3-48.3,115.1-109.9v-1.1s0-62.5,0-62.5Z"/>
  <g>
    <g>
      <path class="cls-2" d="M239.1,118.9v-1.6c-2.9-61.6-53.4-109.9-115.1-109.9S11.7,55.7,8.9,117.3v1.1s0,62.5,0,62.5v1.6c2.9,61.6,53.4,109.9,115.1,109.9s112.3-48.3,115.1-109.9v-1.1s0-62.5,0-62.5ZM233.9,181.4v1c-2.7,58.8-51,104.9-109.9,104.9S16.9,241.1,14.2,182.3v-1.5s0-62.4,0-62.4v-1C16.9,58.8,65.1,12.7,124,12.7s107.1,46.1,109.8,104.9v1.5s0,62.4,0,62.4Z"/>
      <path class="cls-2" d="M199.6,119.1c-1.8-40.5-35-72.2-75.6-72.2s-73.7,31.7-75.6,72.2v.2s0,61.2,0,61.2v.3c1.9,40.5,35.1,72.2,75.6,72.2s73.7-31.7,75.6-72.2v-.2s0-61.2,0-61.2v-.3ZM52.9,119.4h.8c1.7-37.7,32.6-67.1,70.3-67.1s68.6,29.5,70.3,67v61.2c-1.7,37.6-32.6,67.1-70.3,67.1s-68.6-29.5-70.3-67v-61.2h-.8Z"/>
    </g>
    <g>
      <path class="cls-2" d="M212,153.5h.3c.3,0,.5,0,.6,0,.1,0,.2-.1.3-.2.1-.3.4-1.2.6-2.8v-.2s.2-1.2.2-1.2c0-.1.1-.7.3-1.7.1-.7.2-1.2.3-1.6-.3,0-.6,0-.9,0-.3,0-.5,0-.7,0v-.5c.4,0,.9-.2,1.4-.3.5-.1,1-.2,1.5-.4-.1.7-.3,1.3-.4,2-.1.7-.2,1.4-.3,2l-.2,1.5c-.1.9-.2,1.5-.3,1.9,0,.4,0,.6,0,.8,0,.2,0,.4.2.5.1,0,.4.1.8.1h.1v.5c-.5,0-.8,0-1.1,0-.3,0-.6,0-.8,0s-.5,0-.8,0c-.3,0-.6,0-1,0v-.5Z"/>
      <path class="cls-2" d="M222.4,144.7c.7,0,1.3.3,1.7.9.4.6.6,1.4.6,2.4s-.1,1.6-.3,2.4c-.2.8-.5,1.5-1,2.1-.4.6-.8,1.1-1.3,1.4-.5.3-1,.5-1.4.5-.7,0-1.3-.3-1.7-.8-.4-.6-.6-1.4-.6-2.4s.1-1.6.3-2.4c.2-.8.5-1.5.9-2.1.4-.6.8-1.1,1.3-1.4.5-.3,1-.5,1.4-.5ZM222.1,145.4c-.7,0-1.2.5-1.7,1.6-.5,1.1-.7,2.4-.7,3.9s.1,1.5.4,1.9.6.7,1,.7.6-.1.9-.3c.3-.2.5-.6.7-1,.3-.6.5-1.2.6-1.9.2-.7.2-1.5.2-2.2s-.1-1.5-.4-2c-.2-.4-.6-.7-1.1-.7Z"/>
    </g>
    <g>
      <path class="cls-2" d="M22.9,153.4c1.6-1.3,2.9-2.5,3.7-3.6.8-1,1.2-1.9,1.2-2.7s-.1-.9-.4-1.3c-.3-.3-.6-.5-1-.5s-.7.1-.9.3c-.2.2-.4.5-.6,1l-.4-.2c-.1,0-.2-.1-.2-.2,0,0,0-.2,0-.3,0-.3.2-.7.7-1s1-.4,1.6-.4,1.3.2,1.8.7c.5.5.7,1.1.7,1.8s-.1.9-.3,1.3c-.2.4-.6.9-1.1,1.4-.2.2-.6.6-1.1,1.1-.5.5-1.1,1.1-1.8,1.7l-.2.2h2.8c.5,0,.8,0,.9-.2.1-.1.3-.4.4-.8h.4c0,.4-.2.7-.3,1,0,.3-.1.7-.2,1-.7,0-1.2,0-1.7,0-.5,0-.9,0-1.4,0-.6,0-1.1,0-1.4,0-.3,0-.6,0-.9,0l-.2-.6Z"/>
      <path class="cls-2" d="M34.5,144.7c.7,0,1.3.3,1.7.9s.6,1.4.6,2.4-.1,1.6-.3,2.4c-.2.8-.5,1.5-1,2.1-.4.6-.8,1.1-1.3,1.4-.5.3-1,.5-1.4.5-.7,0-1.3-.3-1.7-.8-.4-.6-.6-1.4-.6-2.4s.1-1.6.3-2.4c.2-.8.5-1.5.9-2.1.4-.6.8-1.1,1.3-1.4.5-.3,1-.5,1.4-.5ZM34.1,145.4c-.7,0-1.2.5-1.7,1.6-.5,1.1-.7,2.4-.7,3.9s.1,1.5.4,1.9c.2.5.6.7,1,.7s.6-.1.9-.3c.3-.2.5-.6.7-1,.3-.6.5-1.2.6-1.9s.2-1.5.2-2.2-.1-1.5-.4-2c-.2-.4-.6-.7-1.1-.7Z"/>
    </g>
    <g>
      <path class="cls-2" d="M177.2,150.2c0,11.6-3.8,22.4-10.2,31.2-.5.6-1.5.4-1.6-.4-.1-.9-.3-1.8-.5-2.8-.1-.6-.3-1.1-.5-1.7,0-.3,0-.5,0-.8,1.4-2.2,2.6-4.6,3.7-7,2.5-5.9,3.8-12.2,3.8-18.6,0-12-4.4-23.5-12.5-32.4-8-8.8-18.9-14.4-30.7-15.6-.2,0-.4,0-.5,0s-.1,0-.2,0c0,0-.1,0-.2,0-.4,0-.7.1-.9.3-.3.3-.5,1-.5,2v39.5c0,.7-.7,1.1-1.3.8-1.1-.6-2.7-1.4-3.5-1.8-.3-.1-.5-.5-.5-.8v-37.7c0-2.6.8-4.6,2.3-5.9.2-.1.3-.3.5-.4,0,0,.2-.1.3-.2.1,0,.3-.2.4-.2,0,0,.2,0,.3-.1,0,0,0,0,.1,0,0,0,.2,0,.3-.1.9-.4,1.9-.5,2.9-.5s.7,0,1,0c8.4.9,16.4,3.7,23.4,8.2,1.1.7,2.2,1.5,3.3,2.3,2.1,1.6,4,3.3,5.8,5.1.5.5,1,1.1,1.5,1.6.4.4.8.9,1.2,1.3,8.2,9.7,12.7,21.9,12.7,34.6Z"/>
      <g>
        <path class="cls-2" d="M155,188.5c-.2,1.5-.5,3.4-.7,4.6-.1.6-.5,1.1-1,1.5s-1.1.7-1.2.8c-.2.1-.3.2-.5.3-.1,0-.3.2-.4.3-.1,0-.3.2-.4.2-.1,0-.3.2-.4.2,0,0,0,0,0,0-.1,0-.3.2-.4.2-.4.2-.9.5-1.3.7-.1,0-.3.2-.4.2-.1,0-.3.2-.4.2-.1,0-.3.1-.4.2,0,0,0,0,0,0-.1,0-.3.1-.4.2-.1,0-.3.1-.4.2-.2,0-.3.2-.5.2-.1,0-.3.1-.4.2-.2.1-.5.2-.7.3-.2,0-.5.2-.7.3-.3.1-.6.2-.9.4-.1,0-.2,0-.3.1,0,0-.2,0-.3.1,0,0-.2,0-.3.1-.2,0-.3.1-.5.2-.3.1-.6.2-.9.3,0,0-.2,0-.3.1-.2,0-.5.2-.7.2-.1,0-.3,0-.4.1-.2,0-.3,0-.5.1-.2,0-.3,0-.5.1,0,0,0,0,0,0-.1,0-.3,0-.4.1-.5.1-1,.3-1.5.4-.2,0-.3,0-.5.1-.3,0-.6.1-.9.2,0,0,0,0-.1,0-.1,0-.2,0-.3,0,0,0-.1,0-.2,0-.1,0-.3,0-.4,0,0,0,0,0,0,0-.2,0-.3,0-.5,0-.2,0-.3,0-.5,0-.3,0-.6.1-.9.2-.1,0-.2,0-.3,0-.1,0-.2,0-.4,0,0,0-.1,0-.2,0-.1,0-.2,0-.3,0,0,0-.2,0-.3,0,0,0-.1,0-.2,0,0,0-.2,0-.3,0-.1,0-.2,0-.4,0-.2,0-.3,0-.5,0,0,0-.2,0-.3,0-.3,0-.7,0-1,0-.2,0-.3,0-.5,0h0c-.2,0-.3,0-.5,0-.1,0-.2,0-.4,0-.1,0-.3,0-.4,0-.2,0-.4,0-.6,0h0c-.2,0-.3,0-.5,0-.1,0-.2,0-.4,0-.1,0-.2,0-.4,0-.2,0-.3,0-.5,0h-.1c-7.2,0-14.1-1.4-20.7-4.2-.2,0-.3-.1-.5-.2h0c-.2,0-.3-.1-.5-.2-.2,0-.3-.1-.5-.2s-.3-.1-.5-.2c-.2,0-.3-.1-.5-.2,0,0,0,0-.1,0-.3-.1-.5-.3-.8-.4,0,0,0,0,0,0-.2,0-.3-.2-.4-.2-.3-.2-.6-.3-.9-.5,0,0,0,0,0,0-.3-.2-.6-.3-.9-.5-.1,0-.3-.2-.4-.3-.1,0-.2-.1-.3-.2-.3-.2-.7-.4-1-.6-.3-.2-.6-.3-.8-.5-.4-.3-.9-.6-1.3-.8,0,0-.2-.1-.2-.2-.3-.2-.7-.5-1-.7-2.1-1.5-4.1-3.3-6-5.1,0,0-.2-.2-.3-.3-.1-.1-.3-.3-.4-.4,0,0-.2-.2-.3-.3-.1-.1-.2-.2-.3-.3-.1-.1-.3-.3-.4-.4-.1-.1-.2-.3-.4-.4-.2-.2-.3-.4-.5-.6-.1-.1-.2-.2-.3-.3-.1-.1-.2-.3-.3-.4,0,0,0,0,0,0-.1-.1-.2-.3-.3-.4,0,0,0,0,0,0-.1-.1-.2-.3-.3-.4-.2-.3-.4-.5-.7-.8,0-.1-.2-.2-.2-.3,0,0,0-.1-.1-.2,0,0-.1-.2-.2-.2,0,0-.1-.2-.2-.3,0,0-.1-.1-.2-.2-.3-.4-.7-.9-1-1.4,0-.1-.2-.3-.3-.4,0,0,0,0,0,0,0-.1-.2-.2-.2-.4,0-.1-.2-.3-.3-.4,0-.1-.2-.3-.3-.4-.1-.2-.2-.4-.4-.6,0-.1-.1-.2-.2-.3,0,0,0-.1-.1-.2,0,0,0-.2-.1-.2,0-.1-.1-.2-.2-.3-.2-.4-.5-.8-.7-1.2,0,0,0-.1-.1-.2,0-.1-.1-.3-.2-.4,0-.1-.1-.3-.2-.4,0-.1-.1-.2-.2-.4,0,0,0,0,0-.1,0-.1-.1-.3-.2-.4-.2-.3-.3-.6-.5-.9,0,0,0-.2-.1-.2,0-.1-.1-.2-.2-.4,0-.1-.1-.3-.2-.4,0-.1,0-.2-.1-.3,0,0,0-.2-.1-.3,0-.1,0-.2-.1-.3,0-.2-.1-.3-.2-.5-2.8-6.6-4.2-13.6-4.2-20.8,0-10.7,3.2-21,9.1-29.8h0c0,0,0-.1.1-.2,0,0,0,0,0-.1,0,0,0,0,0-.1,0,0,0-.1.1-.2,0,0,0,0,0,0,0,0,0-.1.1-.2.3-.4.6-.8,1-1.3.3-.4.9-.2.9.3.1,1,.8,3.9,1.1,5.1,0,.3,0,.7-.1,1-.5.7-1.2,2-1.3,2.1,0,.1-.1.2-.2.4,0,0,0,0,0,0,0,.1-.1.2-.2.4,0,.1-.1.3-.2.4,0,.1-.1.3-.2.4,0,.1-.1.3-.2.4,0,.1-.1.3-.2.4-.1.3-.3.5-.4.8,0,.1-.1.3-.2.4,0,.1-.1.3-.2.4,0,.1-.1.3-.2.4,0,.1-.1.3-.2.4-.1.3-.2.5-.3.8-.1.3-.2.5-.3.8-.1.3-.2.5-.3.8,0,.3-.2.5-.3.8,0,.1,0,.3-.1.4-.1.4-.3.8-.4,1.2,0,.3-.2.5-.2.8,0,0,0,0,0,0v.3c-.1.2-.2.4-.2.6,0,0,0,.2,0,.3,0,.2-.1.4-.2.7,0,.1,0,.2,0,.3,0,.1,0,.3,0,.4,0,.1,0,.2,0,.3,0,.1,0,.2,0,.3-.1.7-.3,1.4-.4,2.1,0,.1,0,.2,0,.3,0,.3,0,.5-.1.8,0,0,0,.1,0,.2,0,.1,0,.2,0,.4,0,.1,0,.3,0,.4,0,0,0,0,0,0,0,.1,0,.3,0,.4,0,0,0,.2,0,.3,0,.1,0,.2,0,.3,0,.1,0,.2,0,.4,0,.2,0,.4,0,.6,0,.1,0,.2,0,.3,0,.2,0,.4,0,.5,0,.1,0,.2,0,.3,0,.6,0,1.1,0,1.7,0,.1,0,.2,0,.4,0,.2,0,.4,0,.5,0,6.5,1.3,12.8,3.8,18.7,2.4,5.7,5.9,10.9,10.4,15.3,4.4,4.4,9.6,7.9,15.3,10.3.2,0,.4.2.6.2.4.2.7.3,1.1.4.2,0,.4.1.6.2.4.1.8.3,1.1.4.2,0,.3.1.5.2.1,0,.2,0,.3,0,0,0,.2,0,.2,0,0,0,0,0,.1,0,.2,0,.3,0,.5.1,0,0,0,0,0,0,.2,0,.4.1.5.2.2,0,.4.1.6.2.2,0,.3,0,.5.1,0,0,.1,0,.2,0,.1,0,.2,0,.4,0,0,0,.1,0,.2,0,.2,0,.3,0,.5.1.1,0,.3,0,.4,0,0,0,0,0,.1,0,0,0,.2,0,.2,0,.1,0,.2,0,.4,0,0,0,0,0,.1,0,.1,0,.3,0,.4,0,0,0,.1,0,.2,0,.2,0,.3,0,.5,0,.2,0,.4,0,.6,0,.2,0,.5,0,.7.1.1,0,.3,0,.4,0,0,0,.1,0,.2,0,.1,0,.2,0,.3,0,.1,0,.2,0,.3,0,.4,0,.8,0,1.1.1.2,0,.3,0,.5,0,0,0,0,0,0,0,.2,0,.3,0,.5,0,0,0,.1,0,.2,0,.1,0,.2,0,.3,0,0,0,.2,0,.3,0,.2,0,.4,0,.7,0,.2,0,.3,0,.5,0,0,0,0,0,0,0,.1,0,.2,0,.4,0s.2,0,.3,0c.2,0,.4,0,.5,0,.2,0,.4,0,.6,0h.1c6.4,0,12.7-1.3,18.6-3.8.2,0,.4-.2.7-.3.1,0,.2-.1.4-.2,0,0,0,0,0,0,.1,0,.3-.1.4-.2,0,0,0,0,0,0,.2,0,.3-.2.5-.2.1,0,.3-.1.4-.2.2,0,.3-.2.5-.2,0,0,.2,0,.3-.1,0,0,.1,0,.2,0,0,0,.2,0,.2-.1.1,0,.3-.2.4-.2.2,0,.3-.2.5-.3,0,0,0,0,.1,0,.1,0,.3-.1.4-.2.2-.1.4-.2.6-.3.1,0,.2-.1.4-.2.2-.1.4-.2.6-.3,0,0,.1,0,.2-.1.1,0,.2-.1.3-.2.2,0,.3-.2.5-.3.1,0,.3-.2.4-.3.4-.3.7-.5,1.1-.8.1,0,.2-.1.3-.2,0,0,0,0,0,0,.5-.4,1.1-.8,1.6-1.2.6-.5,1.4,0,1.3.8Z"/>
        <path class="cls-2" d="M96.8,196.1c-.3-.2-.7-.4-1-.6h0c.3.2.7.4,1,.6Z"/>
        <path class="cls-2" d="M98.5,197.1c-.3-.2-.6-.3-.9-.5.3.2.6.3.9.5Z"/>
        <path class="cls-2" d="M99.4,197.6c-.3-.2-.6-.3-.9-.5.3.2.6.3.9.5Z"/>
        <path class="cls-2" d="M141.9,200.3c-.3.1-.6.2-.9.3.3-.1.6-.2.9-.3Z"/>
        <path class="cls-2" d="M144.2,199.4c-.3.1-.6.3-.9.4.3-.1.6-.2.9-.4Z"/>
        <path class="cls-2" d="M149.9,196.6c-.4.2-.9.5-1.3.7.4-.2.9-.5,1.3-.7Z"/>
        <path class="cls-2" d="M163.1,185.7c0,.2,0,.3,0,.5,0,1.4-.1,2.8-.3,4.2-.4,3.5-1.3,7-2.7,10.3-1.9,4.6-4.7,8.7-8.2,12.2-3.5,3.5-7.6,6.3-12.2,8.2-4.7,2-9.8,3-14.9,3-10.1,0-19.6-3.9-26.8-10.9-5.4-5.2-9-11.8-10.6-19-.2-.7.6-1.2,1.2-.7.8.7,1.6,1.3,2.5,1.9.7.5,1.3.9,2,1.4.5.3.9.8,1.1,1.3,1.7,4.2,4.3,8.1,7.6,11.3,6.2,6.1,14.4,9.4,23.1,9.4s17.2-3.4,23.4-9.7c3.8-3.8,6.6-8.5,8.2-13.5.4-1.3.7-2.7,1-4,.3-1.9.5-3.9.5-5.9s0-1.1,0-1.6c0-1.1-.2-2.2-.4-3.3-.6-2.8-2-5.6-4.7-8.7-5.2-5.9-15-12.4-30-19.8-15.9-7.8-25.9-14.5-31.6-20.9-2.2-2.5-3.7-4.9-4.7-7.2-.4-1-.8-2-1-3-.6-2.4-.8-4.7-.8-6.9s0-.2,0-.3c0-1.3,0-2.6.2-3.9.4-3.7,1.3-7.3,2.8-10.7,1.9-4.6,4.7-8.7,8.2-12.2,3.5-3.5,7.6-6.3,12.2-8.2,4.7-2,9.8-3,14.9-3s10.2,1,15,2.9c4.6,1.9,8.8,4.6,12.4,8,5.7,5.4,9.4,12.3,10.9,19.8.1.7-.7,1.1-1.2.7-.8-.7-1.6-1.3-2.4-1.9-.8-.6-1.6-1.2-2.5-1.8-.1,0-.2-.2-.3-.4-1.6-4.7-4.4-9-8.2-12.6-3.1-3-6.7-5.3-10.7-6.9-4.1-1.7-8.5-2.5-13-2.5-8.8,0-17.2,3.4-23.4,9.7-6.3,6.3-9.7,14.6-9.7,23.4s.9,8.8,5.1,13.6c4.4,4.9,12.1,10.3,23.6,16.4.9.5,1.7.9,2.6,1.4,1.2.6,2.5,1.2,3.7,1.9.5.3,1,.5,1.5.7.9.4,1.8.9,2.6,1.3,13.5,6.9,22.3,13,27.5,18.9,2.2,2.5,3.7,4.9,4.7,7.2.4,1,.8,2.1,1,3.1.6,2.4.8,4.7.8,6.8Z"/>
      </g>
    </g>
  </g>
  <g>
    <path class="cls-2" d="M212,153.6h.9c.1,0,.2-.1.3-.2.1-.3.4-1.2.6-2.8v-.2l.2-1.2c0-.1.1-.7.3-1.7.1-.7.2-1.2.3-1.6h-1.6v-.5c.4,0,.9-.2,1.4-.3s1-.2,1.5-.4c-.1.7-.3,1.3-.4,2-.1.7-.2,1.4-.3,2l-.2,1.5c-.1.9-.2,1.5-.3,1.9v.8c0,.2,0,.4.2.5.1,0,.4.1.8.1h.1v.5h-3.7v-.5h-.1Z"/>
    <path class="cls-2" d="M222.4,144.7c.7,0,1.3.3,1.7.9.4.6.6,1.4.6,2.4s-.1,1.6-.3,2.4c-.2.8-.5,1.5-1,2.1-.4.6-.8,1.1-1.3,1.4-.5.3-1,.5-1.4.5-.7,0-1.3-.3-1.7-.8-.4-.6-.6-1.4-.6-2.4s.1-1.6.3-2.4c.2-.8.5-1.5.9-2.1s.8-1.1,1.3-1.4c.5-.3,1-.5,1.4-.5h.1ZM222.1,145.5c-.7,0-1.2.5-1.7,1.6s-.7,2.4-.7,3.9.1,1.5.4,1.9.6.7,1,.7.6-.1.9-.3c.3-.2.5-.6.7-1,.3-.6.5-1.2.6-1.9.2-.7.2-1.5.2-2.2s-.1-1.5-.4-2c-.2-.4-.6-.7-1.1-.7h.1Z"/>
  </g>
  <g>
    <path class="cls-2" d="M22.9,153.5c1.6-1.3,2.9-2.5,3.7-3.6.8-1,1.2-1.9,1.2-2.7s-.1-.9-.4-1.3c-.3-.3-.6-.5-1-.5s-.7.1-.9.3c-.2.2-.4.5-.6,1l-.4-.2c-.1,0-.2-.1-.2-.2v-.3c0-.3.2-.7.7-1s1-.4,1.6-.4,1.3.2,1.8.7.7,1.1.7,1.8-.1.9-.3,1.3c-.2.4-.6.9-1.1,1.4-.2.2-.6.6-1.1,1.1s-1.1,1.1-1.8,1.7l-.2.2h2.8c.5,0,.8,0,.9-.2.1-.1.3-.4.4-.8h.4c0,.4-.2.7-.3,1,0,.3-.1.7-.2,1h-5.4l-.2-.6v.3Z"/>
    <path class="cls-2" d="M34.5,144.7c.7,0,1.3.3,1.7.9s.6,1.4.6,2.4,0,1.6-.3,2.4c-.2.8-.5,1.5-1,2.1-.4.6-.8,1.1-1.3,1.4-.5.3-1,.5-1.4.5-.7,0-1.3-.3-1.7-.8-.4-.6-.6-1.4-.6-2.4s.1-1.6.3-2.4c.2-.8.5-1.5.9-2.1.4-.6.8-1.1,1.3-1.4.5-.3,1-.5,1.4-.5h.1ZM34.1,145.5c-.7,0-1.2.5-1.7,1.6s-.7,2.4-.7,3.9.1,1.5.4,1.9c.2.5.6.7,1,.7s.6-.1.9-.3c.3-.2.5-.6.7-1,.3-.6.5-1.2.6-1.9s.2-1.5.2-2.2,0-1.5-.4-2c-.2-.4-.6-.7-1.1-.7h0Z"/>
  </g>
  <g>
    <path class="cls-2" d="M177.2,150.3c0,11.6-3.8,22.4-10.2,31.2-.5.6-1.5.4-1.6-.4-.1-.9-.3-1.8-.5-2.8-.1-.6-.3-1.1-.5-1.7v-.8c1.4-2.2,2.6-4.6,3.7-7,2.5-5.9,3.8-12.2,3.8-18.6,0-12-4.4-23.5-12.5-32.4-8-8.8-18.9-14.4-30.7-15.6h-.9c-.4,0-.7,0-.9.3-.3.3-.5,1-.5,2v39.5c0,.7-.7,1.1-1.3.8-1.1-.6-2.7-1.4-3.5-1.8-.3-.1-.5-.5-.5-.8v-37.7c0-2.6.8-4.6,2.3-5.9.2,0,.3-.3.5-.4,0,0,.2,0,.3-.2,0,0,.3-.2.4-.2,0,0,.2,0,.3,0h0s.2,0,.3,0c.9-.4,1.9-.5,2.9-.5h1c8.4.9,16.4,3.7,23.4,8.2,1.1.7,2.2,1.5,3.3,2.3,2.1,1.6,4,3.3,5.8,5.1.5.5,1,1.1,1.5,1.6.4.4.8.9,1.2,1.3,8.2,9.7,12.7,21.9,12.7,34.6h0Z"/>
    <g>
      <path class="cls-2" d="M155,188.6c-.2,1.5-.5,3.4-.7,4.6-.1.6-.5,1.1-1,1.5s-1.1.7-1.2.8c-.2.1-.3.2-.5.3-.1,0-.3.2-.4.3-.1,0-.3.2-.4.2s-.3.2-.4.2h0c-.1,0-.3.2-.4.2-.4.2-.9.5-1.3.7-.1,0-.3.2-.4.2s-.3.2-.4.2-.3.1-.4.2h0c-.1,0-.3.1-.4.2-.1,0-.3.1-.4.2-.2,0-.3.2-.5.2s-.3.1-.4.2c-.2.1-.5.2-.7.3-.2,0-.5.2-.7.3-.3.1-.6.2-.9.4-.1,0-.2,0-.3.1,0,0-.2,0-.3.1,0,0-.2,0-.3.1-.2,0-.3.1-.5.2-.3.1-.6.2-.9.3,0,0-.2,0-.3.1-.2,0-.5.2-.7.2s-.3,0-.4.1c-.2,0-.3,0-.5.1-.2,0-.3,0-.5.1h0c-.1,0-.3,0-.4.1-.5.1-1,.3-1.5.4-.2,0-.3,0-.5.1-.3,0-.6.1-.9.2h-2c-.3,0-.6.1-.9.2h-8.5c-7.2,0-14.1-1.4-20.7-4.2-.2,0-.3-.1-.5-.2h0c-.2,0-.3-.1-.5-.2-.2,0-.3-.1-.5-.2s-.3-.1-.5-.2c-.2,0-.3-.1-.5-.2h0c-.3-.1-.5-.3-.8-.4h0c-.2,0-.3-.2-.4-.2-.3-.2-.6-.3-.9-.5h0c-.3-.2-.6-.3-.9-.5,0,0-.3-.2-.4-.3,0,0-.2-.1-.3-.2-.3-.2-.7-.4-1-.6-.3-.2-.6-.3-.8-.5-.4-.3-.9-.6-1.3-.8,0,0-.2-.1-.2-.2-.3-.2-.7-.5-1-.7-2.1-1.5-4.1-3.3-6-5.1l-.3-.3c0-.1-.3-.3-.4-.4l-.3-.3c0-.1-.2-.2-.3-.3,0-.1-.3-.3-.4-.4,0-.1-.2-.3-.4-.4-.2-.2-.3-.4-.5-.6s-.2-.2-.3-.3c0-.1-.2-.3-.3-.4h0c0-.1-.2-.3-.3-.4h0c0-.1-.2-.3-.3-.4-.2-.3-.4-.5-.7-.8,0-.1-.2-.2-.2-.3,0,0,0-.1,0-.2,0,0,0-.2-.2-.2,0,0,0-.2-.2-.3,0,0,0-.1-.2-.2-.3-.4-.7-.9-1-1.4,0-.1-.2-.3-.3-.4h0c0-.1-.2-.2-.2-.4s-.2-.3-.3-.4c0-.1-.2-.3-.3-.4,0-.2-.2-.4-.4-.6,0-.1,0-.2-.2-.3,0,0,0-.1,0-.2,0,0,0-.2,0-.2,0-.1,0-.2-.2-.3-.2-.4-.5-.8-.7-1.2,0,0,0-.1,0-.2,0-.1,0-.3-.2-.4,0-.1,0-.3-.2-.4,0-.1,0-.2-.2-.4h0c0-.2,0-.4-.2-.5-.2-.3-.3-.6-.5-.9,0,0,0-.2,0-.2,0-.1,0-.2-.2-.4,0-.1,0-.3-.2-.4,0-.1,0-.2,0-.3,0,0,0-.2,0-.3,0-.1,0-.2,0-.3,0-.2,0-.3-.2-.5-2.8-6.6-4.2-13.6-4.2-20.8,0-10.7,3.2-21,9.1-29.8h0s0,0,0-.2h0v-.2s0,0,0-.2h0s0,0,0-.2c.3-.4.6-.8,1-1.3.3-.4.9-.2.9.3,0,1,.8,3.9,1.1,5.1,0,.3,0,.7,0,1-.5.7-1.2,2-1.3,2.1,0,0,0,.2-.2.4h0c0,0,0,.2-.2.4,0,0,0,.3-.2.4,0,0,0,.3-.2.4,0,0,0,.3-.2.4,0,0,0,.3-.2.4,0,.3-.3.5-.4.8,0,.1,0,.3-.2.4,0,.1,0,.3-.2.4,0,.1,0,.3-.2.4,0,.1,0,.3-.2.4,0,.3-.2.5-.3.8,0,.3-.2.5-.3.8,0,.3-.2.5-.3.8,0,.3-.2.5-.3.8,0,.1,0,.3,0,.4,0,.4-.3.8-.4,1.2,0,.3-.2.5-.2.8h0v.3c0,.2-.2.4-.2.6v.3c0,.2,0,.4-.2.7v1.3c0,.7-.3,1.4-.4,2.1v.3c0,.3,0,.5,0,.8v1h0v5.7c0,6.5,1.3,12.8,3.8,18.7,2.4,5.7,5.9,10.9,10.4,15.3,4.4,4.4,9.6,7.9,15.3,10.3.2,0,.4.2.6.2.4.2.7.3,1.1.4.2,0,.4.1.6.2.4.1.8.3,1.1.4.2,0,.3.1.5.2h.6c.2,0,.3,0,.5.1h0c.2,0,.4.1.5.2.2,0,.4.1.6.2.2,0,.3,0,.5.1h.8c.2,0,.3,0,.5.1h2.9c.2,0,.5,0,.7.1h1.2c.4,0,.8,0,1.1.1h4.9c6.4,0,12.7-1.3,18.6-3.8.2,0,.4-.2.7-.3.1,0,.2-.1.4-.2h0c.1,0,.3-.1.4-.2h0c.2,0,.3-.2.5-.2s.3-.1.4-.2c.2,0,.3-.2.5-.2,0,0,.2,0,.3-.1h.2s.2,0,.2-.1c.1,0,.3-.2.4-.2.2,0,.3-.2.5-.3h.1c.1,0,.3-.1.4-.2.2-.1.4-.2.6-.3.1,0,.2-.1.4-.2.2-.1.4-.2.6-.3,0,0,.1,0,.2-.1.1,0,.2-.1.3-.2.2,0,.3-.2.5-.3.1,0,.3-.2.4-.3.4-.3.7-.5,1.1-.8.1,0,.2-.1.3-.2h0c.5-.4,1.1-.8,1.6-1.2.6-.5,1.4,0,1.3.8l-.9,2Z"/>
      <path class="cls-2" d="M96.8,196.2c-.3-.2-.7-.4-1-.6h0c.3.2.7.4,1,.6Z"/>
      <path class="cls-2" d="M98.5,197.1c-.3-.2-.6-.3-.9-.5.3.2.6.3.9.5Z"/>
      <path class="cls-2" d="M99.4,197.6c-.3-.2-.6-.3-.9-.5.3.2.6.3.9.5Z"/>
      <path class="cls-2" d="M141.9,200.4c-.3.1-.6.2-.9.3.3-.1.6-.2.9-.3Z"/>
      <path class="cls-2" d="M144.2,199.5c-.3.1-.6.3-.9.4.3-.1.6-.2.9-.4Z"/>
      <path class="cls-2" d="M149.9,196.7c-.4.2-.9.5-1.3.7.4-.2.9-.5,1.3-.7Z"/>
      <path class="cls-2" d="M163.1,185.8v.5c0,1.4-.1,2.8-.3,4.2-.4,3.5-1.3,7-2.7,10.3-1.9,4.6-4.7,8.7-8.2,12.2s-7.6,6.3-12.2,8.2c-4.7,2-9.8,3-14.9,3-10.1,0-19.6-3.9-26.8-10.9-5.4-5.2-9-11.8-10.6-19-.2-.7.6-1.2,1.2-.7.8.7,1.6,1.3,2.5,1.9.7.5,1.3.9,2,1.4s.9.8,1.1,1.3c1.7,4.2,4.3,8.1,7.6,11.3,6.2,6.1,14.4,9.4,23.1,9.4s17.2-3.4,23.4-9.7c3.8-3.8,6.6-8.5,8.2-13.5.4-1.3.7-2.7,1-4,.3-1.9.5-3.9.5-5.9s0-1.1,0-1.6c0-1.1-.2-2.2-.4-3.3-.6-2.8-2-5.6-4.7-8.7-5.2-5.9-15-12.4-30-19.8-15.9-7.8-25.9-14.5-31.6-20.9-2.2-2.5-3.7-4.9-4.7-7.2-.4-1-.8-2-1-3-.6-2.4-.8-4.7-.8-6.9s0-.2,0-.3c0-1.3,0-2.6.2-3.9.4-3.7,1.3-7.3,2.8-10.7,1.9-4.6,4.7-8.7,8.2-12.2s7.6-6.3,12.2-8.2c4.7-2,9.8-3,14.9-3s10.2,1,15,2.9c4.6,1.9,8.8,4.6,12.4,8,5.7,5.4,9.4,12.3,10.9,19.8.1.7-.7,1.1-1.2.7-.8-.7-1.6-1.3-2.4-1.9-.8-.6-1.6-1.2-2.5-1.8-.1,0-.2-.2-.3-.4-1.6-4.7-4.4-9-8.2-12.6-3.1-3-6.7-5.3-10.7-6.9-4.1-1.7-8.5-2.5-13-2.5-8.8,0-17.2,3.4-23.4,9.7-6.3,6.3-9.7,14.6-9.7,23.4s.9,8.8,5.1,13.6c4.4,4.9,12.1,10.3,23.6,16.4.9.5,1.7.9,2.6,1.4,1.2.6,2.5,1.2,3.7,1.9.5.3,1,.5,1.5.7.9.4,1.8.9,2.6,1.3,13.5,6.9,22.3,13,27.5,18.9,2.2,2.5,3.7,4.9,4.7,7.2.4,1,.8,2.1,1,3.1.6,2.4.8,4.7.8,6.8h0Z"/>
    </g>
  </g>
</svg>