<?xml version="1.0" encoding="utf-8"?>
<!-- Generator: Adobe Illustrator 24.3.0, SVG Export Plug-In . SVG Version: 6.00 Build 0)  -->
<svg version="1.1" id="Layer_1" xmlns="http://www.w3.org/2000/svg" xmlns:xlink="http://www.w3.org/1999/xlink" x="0px" y="0px"
	 viewBox="0 0 913.2 500" style="enable-background:new 0 0 913.2 500;" xml:space="preserve">
<style type="text/css">
	.st0{fill:#E84B1E;}
</style>
<g>
	<path class="st0" d="M879.9,282.1L804.2,71.1c-2.1-6-6.5-10.8-12.3-13.5c-5.8-2.7-12.3-3-18.2-0.9l-2.2,0.8c0,0,0,0-0.1,0
		L354.1,207.2c-12.4,4.4-18.9,18.1-14.4,30.5l75.6,210.9c3.5,9.7,12.7,15.8,22.5,15.8c2.7,0,5.4-0.5,8-1.4l419.6-150.4h0
		C877.8,308.2,884.3,294.5,879.9,282.1z M736.9,95.2L605.1,247.1l-198.3-33.6L736.9,95.2z M857.4,290.3
		C857.4,290.3,857.4,290.3,857.4,290.3L857.4,290.3L437.8,440.7c0,0-0.1,0-0.1-0.1L362.1,230l245.7,41.6c0.7,0.1,1.3,0.2,2,0.2
		c3.4,0,6.7-1.5,9-4.1L782,79.4l75.5,210.7C857.5,290.2,857.5,290.2,857.4,290.3z"/>
	<path class="st0" d="M191.5,80.5h250c6.6,0,11.9-5.3,11.9-11.9s-5.3-11.9-11.9-11.9h-250c-6.6,0-11.9,5.3-11.9,11.9
		S184.9,80.5,191.5,80.5z"/>
	<path class="st0" d="M110.4,194.4h153.2c6.6,0,11.9-5.3,11.9-11.9s-5.3-11.9-11.9-11.9H110.4c-6.6,0-11.9,5.3-11.9,11.9
		S103.8,194.4,110.4,194.4z"/>
	<path class="st0" d="M300.2,307.6c0-6.6-5.3-11.9-11.9-11.9H58.6c-6.6,0-11.9,5.3-11.9,11.9s5.3,11.9,11.9,11.9h229.8
		C294.9,319.4,300.2,314.1,300.2,307.6z"/>
	<path class="st0" d="M316.5,420.8h-152c-6.6,0-11.9,5.3-11.9,11.9s5.3,11.9,11.9,11.9h152c6.6,0,11.9-5.3,11.9-11.9
		S323,420.8,316.5,420.8z"/>
</g>
</svg>
