<svg xmlns="http://www.w3.org/2000/svg" xmlns:xlink="http://www.w3.org/1999/xlink" width="61.803" height="36.979" viewBox="0 0 61.803 36.979">
  <defs>
    <clipPath id="clip-path">
      <path id="Path_2818" data-name="Path 2818" d="M55,10.979h61.8V-26H55Z" transform="translate(-55 26)" fill="none"/>
    </clipPath>
    <clipPath id="clip-path-2">
      <path id="Path_2820" data-name="Path 2820" d="M55-19.535h61.8V-21H55Z" transform="translate(-55 21)" fill="none"/>
    </clipPath>
    <clipPath id="clip-path-3">
      <path id="Path_2822" data-name="Path 2822" d="M55-5.535h61.8V-7H55Z" transform="translate(-55 7)" fill="none"/>
    </clipPath>
    <clipPath id="clip-path-4">
      <path id="Path_2824" data-name="Path 2824" d="M55-.771h61.8V-20H55Z" transform="translate(-55 20)" fill="none"/>
    </clipPath>
    <clipPath id="clip-path-5">
      <path id="Path_2827" data-name="Path 2827" d="M70-3.048l2.644-3.078a12.851,12.851,0,0,1-1.851-6.437C70.793-16.2,73.438-19,76.611-19l1.323,2.238L79.256-19a6.019,6.019,0,0,1,5.819,6.157,13.244,13.244,0,0,1-1.852,6.717l2.909,3.358-5.554-1.4v-8.955c0-.56-1.058-1.679-2.644-1.679a2.475,2.475,0,0,0-2.38,1.679v8.676Z" transform="translate(-70 19)" fill="none" clip-rule="evenodd"/>
    </clipPath>
    <clipPath id="clip-path-6">
      <path id="Path_2826" data-name="Path 2826" d="M-120,6186.468H1988.908V-48H-120Z" transform="translate(120 48)" fill="none"/>
    </clipPath>
    <clipPath id="clip-path-7">
      <path id="Path_2830" data-name="Path 2830" d="M75.627-11.608l.38-1.285L75-13.717l1.273-.015L76.7-15l.407,1.276,1.272.04-1.021.8.357,1.293-1.038-.78Z" transform="translate(-75 15)" fill="none" clip-rule="evenodd"/>
    </clipPath>
  </defs>
  <g id="Group_746" data-name="Group 746" clip-path="url(#clip-path)">
    <path id="Path_2817" data-name="Path 2817" d="M50-31h76.448V20.624H50Z" transform="translate(-57.323 23.677)" fill="#81bb40"/>
  </g>
  <g id="Group_747" data-name="Group 747" transform="translate(0 7.322)" clip-path="url(#clip-path-2)">
    <path id="Path_2819" data-name="Path 2819" d="M50-26h76.448V-9.89H50Z" transform="translate(-57.323 18.677)" fill="#000100"/>
  </g>
  <g id="Group_748" data-name="Group 748" transform="translate(0 27.826)" clip-path="url(#clip-path-3)">
    <path id="Path_2821" data-name="Path 2821" d="M50-12h76.448V4.11H50Z" transform="translate(-57.323 4.677)" fill="#000100"/>
  </g>
  <g id="Group_749" data-name="Group 749" transform="translate(0 8.787)" clip-path="url(#clip-path-4)">
    <path id="Path_2823" data-name="Path 2823" d="M50-25h76.448V8.874H50Z" transform="translate(-57.323 17.677)" fill="#0001fc"/>
  </g>
  <g id="Group_751" data-name="Group 751" transform="translate(21.968 10.252)" clip-path="url(#clip-path-5)">
    <g id="Group_750" data-name="Group 750" transform="translate(-278.259 -42.471)" clip-path="url(#clip-path-6)">
      <path id="Path_2825" data-name="Path 2825" d="M65-24H95.777V6.877H65Z" transform="translate(205.936 59.149)" fill="#fff"/>
    </g>
  </g>
  <g id="Group_753" data-name="Group 753" transform="translate(29.29 16.109)" clip-path="url(#clip-path-7)">
    <g id="Group_752" data-name="Group 752" transform="translate(-285.581 -48.329)" clip-path="url(#clip-path-6)">
      <path id="Path_2828" data-name="Path 2828" d="M70-20H88.025V-1.943H70Z" transform="translate(208.259 61.007)" fill="#fff"/>
    </g>
  </g>
</svg>
