<?xml version="1.0" encoding="utf-8"?>
<!-- Generator: Adobe Illustrator 26.3.1, SVG Export Plug-In . SVG Version: 6.00 Build 0)  -->
<svg version="1.1" baseProfile="tiny" id="Layer_1" xmlns="http://www.w3.org/2000/svg" xmlns:xlink="http://www.w3.org/1999/xlink"
	 x="0px" y="0px" viewBox="0 0 150 150" overflow="visible" xml:space="preserve">
<g>
	<path id="Path_26" fill="#00A89C" d="M85,25c0,5.5-4.5,10-10,10s-10-4.5-10-10s4.5-10,10-10S85,19.5,85,25"/>
	<path id="Path_27" fill="#00A89C" d="M118.5,33.1c-0.3-1.4-1.7-2.2-3.1-1.9c-11.2,3-28.3,11.1-40.4,12.9
		c-12.1-1.9-29.2-9.9-40.4-12.9c-1.4-0.3-2.8,0.6-3.1,1.9c-0.2,1.1,0.2,2.2,1.2,2.8c0,0,20.5,11.8,26.3,15.1s5.4,16.7,2.9,32.1
		c-2.5,15.4-13.6,38.8-17.5,48.4c-0.5,1.3,0.2,2.8,1.5,3.3c1,0.4,2.2,0.1,2.9-0.8c9.6-13.7,18.3-27.9,26.2-42.6l0,0
		c7.9,14.7,16.6,28.9,26.2,42.6c0.9,1.1,2.5,1.2,3.6,0.3c0.8-0.7,1.1-1.9,0.8-2.9c-3.9-9.5-15-33-17.5-48.4S85.2,54.2,91,51
		s26.2-15,26.2-15C118.2,35.4,118.7,34.2,118.5,33.1"/>
</g>
</svg>
