<?xml version="1.0" encoding="utf-8"?>
<!-- Generator: Adobe Illustrator 27.2.0, SVG Export Plug-In . SVG Version: 6.00 Build 0)  -->
<svg version="1.1" id="Layer_1" xmlns="http://www.w3.org/2000/svg" xmlns:xlink="http://www.w3.org/1999/xlink" x="0px" y="0px"
	 viewBox="0 0 150 150" style="enable-background:new 0 0 150 150;" xml:space="preserve">
<style type="text/css">
	.st0{clip-path:url(#SVGID_00000098213408336091699840000005401787739849901491_);}
	.st1{fill:#FFFFFF;}
</style>
<g>
	<defs>
		<rect id="SVGID_1_" x="12.5" y="6" width="125" height="138"/>
	</defs>
	<clipPath id="SVGID_00000011026819159588836920000017211984986630521786_">
		<use xlink:href="#SVGID_1_"  style="overflow:visible;"/>
	</clipPath>
	<g id="Group_913" style="clip-path:url(#SVGID_00000011026819159588836920000017211984986630521786_);">
		<path id="Path_130" class="st1" d="M137.5,144h-7.8v-18.9c0-15.3-12.4-27.7-27.7-27.7H48c-15.3,0-27.7,12.4-27.7,27.7V144h-7.8
			v-18.9c0-19.6,15.9-35.5,35.5-35.5h54c19.6,0,35.5,15.9,35.5,35.5V144z"/>
		<path id="Path_131" class="st1" d="M74,79.1c-20.2,0-36.6-16.4-36.6-36.6C37.4,22.4,53.8,6,74,6c20.2,0,36.6,16.4,36.6,36.6
			c0,0,0,0,0,0C110.5,62.7,94.2,79.1,74,79.1 M74,13.9c-15.9,0-28.7,12.9-28.7,28.7S58.1,71.3,74,71.3c15.9,0,28.7-12.9,28.7-28.7
			l0,0C102.7,26.7,89.9,13.9,74,13.9"/>
	</g>
</g>
</svg>
