<?xml version="1.0" encoding="utf-8"?>
<!-- Generator: Adobe Illustrator 27.2.0, SVG Export Plug-In . SVG Version: 6.00 Build 0)  -->
<svg version="1.1" id="Layer_1" xmlns="http://www.w3.org/2000/svg" xmlns:xlink="http://www.w3.org/1999/xlink" x="0px" y="0px"
	 viewBox="0 0 150 150" style="enable-background:new 0 0 150 150;" xml:space="preserve">
<style type="text/css">
	.st0{clip-path:url(#SVGID_00000183246227389326706870000018098997252087886523_);}
	.st1{fill:#FFFFFF;}
</style>
<g>
	<defs>
		<rect id="SVGID_1_" x="3.9" y="12.5" width="142.2" height="125"/>
	</defs>
	<clipPath id="SVGID_00000033337896787019410230000015660227487558280354_">
		<use xlink:href="#SVGID_1_"  style="overflow:visible;"/>
	</clipPath>
	<g id="Group_915" style="clip-path:url(#SVGID_00000033337896787019410230000015660227487558280354_);">
		<path id="Path_132" class="st1" d="M143.4,34.9c-2.1-2.6-5.3-4.1-8.7-4.1L28.5,31.1L28,27.5l0-0.3c-1.2-8.3-8.2-14.4-16.5-14.7
			H3.9v8h7.5c4.5,0.3,8.1,3.7,8.6,8.2c0.2,1.7,2.7,20.1,5.3,39.5c3.9,28.3,6.2,44.8,6.9,48.9l0.6,3.3h101.9v-8H39.6
			c-0.4-2.8-1-7.1-1.8-12.7h80.2c11.3,0,20.9-8.4,22.4-19.7l5.4-35.7C146.5,41,145.6,37.5,143.4,34.9 M138,43l-5.5,35.9
			c-1,7.3-7.2,12.8-14.5,12.8H36.7c-1-6.9-2.1-15.1-3.4-24.6c-1.4-10.5-2.8-20.6-3.8-28l105.2-0.3c1,0,1.9,0.4,2.5,1.2
			C137.9,40.8,138.2,41.9,138,43"/>
		<path id="Path_133" class="st1" d="M49.6,129.5c-3.7,0-6.8-3-6.8-6.7h-8c0,8.2,6.7,14.9,14.9,14.9s14.9-6.7,14.9-14.9h-8
			C56.4,126.5,53.3,129.5,49.6,129.5"/>
		<path id="Path_134" class="st1" d="M119.5,129.5c-3.7,0-6.8-3-6.8-6.7h-8c0,8.2,6.7,14.8,14.9,14.8c8.2,0,14.8-6.6,14.8-14.8h-8
			C126.3,126.5,123.3,129.5,119.5,129.5"/>
	</g>
</g>
</svg>
