<?xml version="1.0" encoding="utf-8"?>
<!-- Generator: Adobe Illustrator 27.9.0, SVG Export Plug-In . SVG Version: 6.00 Build 0)  -->
<svg version="1.1" id="Layer_1" xmlns="http://www.w3.org/2000/svg" xmlns:xlink="http://www.w3.org/1999/xlink" x="0px" y="0px"
	 viewBox="0 0 35.3 35.3" style="enable-background:new 0 0 35.3 35.3;" xml:space="preserve">
<style type="text/css">
	.st0{fill:#FFFFFF;}
</style>
<g id="Group_879" transform="translate(-27.556 27.44)">
	<g id="Group_976" transform="translate(0 0)">
		<path id="Path_112" class="st0" d="M60.9-25.5c-1.1-1.1-3.1-0.8-4.6,0.7L30.2,1.3c-1.4,1.4-1.7,3.5-0.7,4.6
			c1.1,1.1,3.1,0.8,4.6-0.7l26.2-26.2C61.7-22.4,62-24.4,60.9-25.5"/>
		<path id="Path_114" class="st0" d="M60.9,5.9c1.1-1.1,0.8-3.1-0.7-4.6L34.1-24.8c-1.4-1.4-3.5-1.7-4.6-0.7s-0.8,3.1,0.7,4.6
			L56.3,5.2C57.8,6.7,59.8,7,60.9,5.9"/>
	</g>
</g>
</svg>
