<?xml version="1.0" encoding="utf-8"?>
<!-- Generator: Adobe Illustrator 28.2.0, SVG Export Plug-In . SVG Version: 6.00 Build 0)  -->
<svg version="1.1" baseProfile="tiny" id="Layer_1" xmlns="http://www.w3.org/2000/svg" xmlns:xlink="http://www.w3.org/1999/xlink"
	 x="0px" y="0px" width="158.5px" height="62.8px" viewBox="0 0 158.5 62.8" overflow="visible" xml:space="preserve">
<g>
	<g id="Group_134" transform="translate(0 0)">
		<g id="Group_131" transform="translate(0 0)">
			<path id="Path_168" d="M158.1,33c-0.3-1-0.7-1.9-1.2-2.8c0,0,0,0,0-0.1c0-0.6,0.1-3.3,0-6c0-0.7-0.1-1.3-0.2-2
				c-0.1-0.6-0.2-1.2-0.3-1.8c-0.1-0.3-0.2-0.7-0.3-1c-1-2-2.1-3.9-3.3-5.7c-1.7-2.7-3.6-5.2-5.6-7.7c0,0,1.4-1.1,2.5-2
				c0.2-0.2,0.5-0.4,0.7-0.5c0.7-0.6,0.4-0.6-3.5-0.8c-3.8-0.2-9.2-0.3-15.1-0.4c-2.5-1.3-7.1-1.6-7.1-1.6c-1.7-0.1-3.3-0.2-4.8-0.3
				c-5-0.2-9.3-0.3-12.7-0.3C96.6,0,90.7,0,85.2,0.3c-3.2,0.1-5.6,0.4-7.5,0.6c-2.6,0.3-3.8,0.6-3.8,0.6c-1.7,0.3-3.2,0.9-4.7,1.8
				c-1.7,0.2-3.4,0.5-5,1.1c-0.5,0.2-1,0.4-1.5,0.6C62.7,5,62.6,5,62.5,5.1c-0.2,0.1-0.3,0.2-0.5,0.3c-0.2,0.1-0.2,0.1-0.5,0.3
				c-3.2,2-6.2,4.4-8.9,7.1c0,0-5.2,5-5.3,5l0,0l-1.4,0.1c-5.4,0.2-24.2,1-29,1.5c-2.5,0.2-5,0.7-7.4,1.4c-0.5,0.2-0.9,0.4-1.4,0.6
				c-0.6,0.3-1.1,0.7-1.5,1.2c-0.5,0.6-0.9,1.4-1.2,2.1c0,0-0.1,0.2-0.2,0.6c-0.3,0.9-0.9,2.8-1.5,4.8s-1.1,3.9-1.4,5l0,0
				C1,35.2-0.1,36.4,0,37.9c0,0,0,0,0,0.1c0,0,0,0.1,0,0.2c0,0,0,0.1,0,0.1c0,0.1,0,0.2,0,0.4c0,0.1,0,0.1,0,0.2c0,0.6,0,1.4,0,2.4
				c0,0.3,0,0.6,0,1c0,0.1,0,0.3,0,0.4c0,0.3,0,0.6,0,0.9c0,0.1,0,0.1,0,0.2c0,0.3,0,0.7,0,1c0,0.1,0,0.2,0,0.2
				c0,0.9,0.1,1.8,0.2,2.7c0.2,1.9,1.2,2.8,6.8,3.4c0,0,1.7,0.2,6.5,0.3l0.6,0c-0.1-0.8-0.2-1.6-0.2-2.3v-0.1
				c0-5.5,2.7-10.7,7.2-13.8c0.4-0.3,0.9-0.6,1.3-0.8c2.4-1.3,5.1-2.1,7.9-2.1c2.5,0,5,0.5,7.3,1.6c0.3,0.2,0.7,0.3,1,0.5
				c5.2,2.9,8.4,8.4,8.4,14.3c0,1-0.1,2.1-0.3,3.1h0.2l0.4,5.9h0.4l-0.1-5.9c0.1,0,0.1,0,0.2,0c0,0,47.1-0.3,59.9-0.5
				c0-0.1-0.1-0.3-0.1-0.4c0,0,0,0,0,0c0-0.1,0-0.3-0.1-0.4c0-0.1,0-0.2,0-0.3c0-0.1,0-0.2,0-0.3s0-0.2,0-0.3s0-0.2,0-0.3
				c0-0.1,0-0.3,0-0.4c0-0.2,0-0.3,0-0.5c-0.1-8.2,5.8-15.2,13.9-16.5h0c0.2,0,0.3,0,0.5-0.1c9.1-1.2,17.4,5.1,18.6,14.2
				c0.2,1.4,0.2,2.8,0,4.2c0.1,0,0.2,0,0.3,0l0.5,5.8h0.4l-0.1-5.9c2.6-0.3,16.3-2.4,16.5-7C158.4,42.7,158.8,41.2,158.1,33
				 M24.6,21c-0.1,0.2-0.2,0.3-0.4,0.4c-0.8,0.6-1.7,1-2.6,1.4c-0.6,0.3-1.2,0.5-1.9,0.8c-1.3,0.5-2.5,1.1-3.7,1.8l0,0
				c-0.4,0.3-0.6,0.9-0.3,1.4c0,0,0,0.1,0.1,0.1c0.6,1-0.2,1.1-0.2,1.1c-1.4,0.3-2.8,0.5-4.2,0.5c-1.8,0.2-3.6,0.1-5.3-0.3
				c-0.1-0.3-0.1-0.5-0.2-0.8c0-0.8,0.1-1.5,0.3-2.2c4.3-2.6,12.7-4.3,17.2-4.7C24.6,20.3,24.8,20.7,24.6,21 M77,2.1
				c0,0,0.3-0.1,0.8-0.1c2.9-0.4,5.8-0.7,8.8-0.8c4.6-0.2,9.7-0.3,18.6-0.2c3.7,0,8.8,0.1,14.7,0.5c0,0,0.1,0,0.1,0
				c1.4,0.1,2.8,0.3,4.2,0.7C114.8,2,105.8,2,101.5,2c0,0-17.3,0.1-26.7,0.7C75.4,2.5,76.2,2.2,77,2.1 M47.7,17.8
				c0.1-0.1,5.3-5,5.3-5c2.7-2.7,5.7-5,8.9-7.1c0.9,0.1,1.9,0.2,2.8,0.2c0,0-13.4,12.1-14.2,12.6C49.5,18.6,48.5,18.4,47.7,17.8
				 M85,19.9c-7.6,0.1-10.2,0-22,0.1c0.3-0.1,0.5-0.1,0.7-0.2c0.2-0.1,0.5-0.4,0.7-0.8c0.1-0.1,0.1-0.3,0.2-0.5L61,18.4v-1.1l4-0.2
				c0.1-0.8,0.1-1.6,0-2.3c-0.1-0.4-0.3-0.8-0.7-0.9c-1.3-0.4-2.4-0.2-4.4,1.2c-1.9,1.3-3.8,3.3-3,4.7c0,0,0,0.1,0.1,0.1
				c0.1,0.2,0.3,0.3,0.4,0.4c-0.9,0-1.7-0.1-2.6-0.3c-0.1,0-0.3-0.1-0.4-0.1c-0.4-0.2-0.2-0.5-0.2-0.5c0.1-0.2,0.3-0.3,0.4-0.5
				c2.6-2.7,5.3-5.2,8.2-7.5c5.3-4.5,8.4-5.4,8.4-5.4s2.4-1,13.8-1.2c0,0,1.4,0,3.7-0.1C87.9,7.4,85.5,17.7,85,19.9 M118.9,19.2
				c-7.7,0.3-19.8,0.5-25.8,0.6c0.2-3.9,0.8-12.8,1-15.4c6.1-0.1,14.4-0.2,22.1-0.1l3.3,8.6L118.9,19.2z M137.8,15.2
				c-0.5,0.3-1,0.5-1.6,0.7c-4,1.5-8.1,2.5-12.3,2.9l-5.7-14.6c5.9,0.1,11.2,0.2,14.6,0.5c3.1,0.2,3.3,0.7,3.9,1.5
				c1.5,2,3.4,5.5,3.4,5.5C141.1,13.6,137.8,15.2,137.8,15.2 M155.1,24.1c-1.3-0.2-2.7-0.4-4-0.8c-0.6-0.2-1.2-0.4-1.8-0.6
				c-1.6-0.7-1-1.1-0.4-1.4c1.7-0.5,3.4-0.7,5.1-0.7c0.6,0,1.3-0.1,1.9-0.1c0.1,0.6,0.2,1.2,0.3,1.8c0.1,0.6,0.1,1.3,0.1,2
				C156,24.2,155.5,24.1,155.1,24.1"/>
		</g>
		<g id="Group_132" transform="translate(15.921 33.583)">
			<path id="Path_169" d="M14.5,0C6.4,0.1-0.1,6.7,0,14.7s6.7,14.6,14.7,14.5c8.1-0.1,14.6-6.7,14.5-14.7c0,0,0,0,0,0
				C29.2,6.4,22.6-0.1,14.5,0C14.5,0,14.5,0,14.5,0 M16.1,6c2.5,0.4,4.7,1.9,6,4.1l-3.8,2.2c-0.6-0.9-1.6-1.6-2.7-1.9L16.1,6z M13,6
				l0.6,4.3c-1.1,0.3-2,0.9-2.6,1.8l-3.8-2.1C8.4,8,10.5,6.5,13,6 M5.9,14.7c0-0.6,0-1.2,0.2-1.7l4.2,1.1c0,0.2,0,0.4,0,0.6
				c0,1,0.3,1.9,0.9,2.6L8,20.4C6.6,18.8,5.9,16.8,5.9,14.7 M14.7,23.4c-1.5,0-2.9-0.3-4.2-1.1l2.2-3.8c1.3,0.6,2.8,0.6,4-0.1
				l2.3,3.7C17.7,23,16.2,23.4,14.7,23.4 M21.3,20.2l-3.1-3.1c0.5-0.7,0.8-1.6,0.8-2.5c0-0.2,0-0.4-0.1-0.6l4.2-1.2
				c0.1,0.6,0.2,1.1,0.2,1.7C23.4,16.6,22.7,18.6,21.3,20.2"/>
		</g>
		<g id="Group_133" transform="translate(109.478 33.18)">
			<path id="Path_170" d="M14.5,0C6.4,0.1-0.1,6.7,0,14.7s6.7,14.6,14.7,14.5c8.1-0.1,14.6-6.7,14.5-14.7c0,0,0,0,0,0
				C29.2,6.4,22.6-0.1,14.5,0C14.5,0,14.5,0,14.5,0 M16.1,6c2.5,0.4,4.7,1.9,6,4.1l-3.8,2.2c-0.6-0.9-1.6-1.6-2.7-1.9L16.1,6z M13,6
				l0.6,4.3c-1.1,0.3-2,0.9-2.6,1.8l-3.8-2.1C8.4,8,10.5,6.5,13,6 M5.9,14.7c0-0.6,0-1.2,0.2-1.7l4.2,1.1c0,0.2,0,0.4,0,0.6
				c0,1,0.3,1.9,0.9,2.6L8,20.4C6.6,18.8,5.9,16.8,5.9,14.7 M14.7,23.4c-1.5,0-2.9-0.3-4.2-1.1l2.2-3.8c1.3,0.6,2.8,0.6,4-0.1
				l2.3,3.7C17.7,23,16.2,23.4,14.7,23.4 M21.3,20.2l-3.1-3.1c0.5-0.7,0.8-1.6,0.8-2.5c0-0.2,0-0.4-0.1-0.6l4.2-1.2
				c0.1,0.6,0.2,1.1,0.2,1.7C23.4,16.6,22.7,18.6,21.3,20.2"/>
		</g>
	</g>
</g>
</svg>
