<?xml version="1.0" encoding="utf-8"?>
<!-- Generator: Adobe Illustrator 26.3.1, SVG Export Plug-In . SVG Version: 6.00 Build 0)  -->
<svg version="1.1" baseProfile="tiny" id="Layer_1" xmlns="http://www.w3.org/2000/svg" xmlns:xlink="http://www.w3.org/1999/xlink"
	 x="0px" y="0px" viewBox="0 0 150 150" overflow="visible" xml:space="preserve">
<g>
	<g>
		<g id="Group_96" transform="translate(0 0)">
			<path id="Path_45" fill="white" d="M37.9,23.5c0,7.8-6.3,14.2-14.1,14.3c-0.4,0-0.8,0-1.2,0c-7.7,0.4-14.3-5.5-14.7-13.2
				c0-0.3,0-0.7,0-1C7.7,15.7,14,9.3,21.8,9.2c0.4,0,0.8,0,1.2,0c7.7-0.5,14.4,5.4,14.9,13.1C37.9,22.8,37.9,23.1,37.9,23.5
				 M8.5,48.9H37v91.4H8.5V48.9z"/>
			<path id="Path_46" fill="white" d="M54,78.1c0-11.4-0.4-20.9-0.7-29.2H78l1.3,12.7h0.6c6.2-9.5,16.9-15,28.2-14.8
				c18.7,0,32.7,12.5,32.7,39.4v54h-28.4V89.6c0-11.8-4.1-19.8-14.4-19.8c-6.6,0.1-12.5,4.4-14.6,10.6c-0.7,2.3-1,4.7-0.9,7.1v52.7
				H54V78.1z"/>
		</g>
	</g>
</g>
</svg>
