<?xml version="1.0" encoding="utf-8"?>
<!-- Generator: Adobe Illustrator 24.3.0, SVG Export Plug-In . SVG Version: 6.00 Build 0)  -->
<svg version="1.1" id="Layer_1" xmlns="http://www.w3.org/2000/svg" xmlns:xlink="http://www.w3.org/1999/xlink" x="0px" y="0px"
	 viewBox="0 0 367 272" style="enable-background:new 0 0 367 272;" xml:space="preserve">
<style type="text/css">
	.st0{fill:#FFFFFF;}
</style>
<g>
	<path class="st0" d="M152.4,261.5h79c19.5,0,37.3-3.1,53.3-9.4c16-6.3,29.7-15,41.1-26.2c11.4-11.2,20.2-24.5,26.4-39.8
		c6.3-15.3,9.4-32.1,9.4-50.2c0-18-3.1-34.7-9.4-50c-6.3-15.3-15.1-28.6-26.4-39.7C314.5,35,300.8,26.3,284.8,20
		c-16-6.3-33.8-9.5-53.3-9.5H134v168.4h58.6V55.3h38.9c11.1,0,21.1,1.9,29.8,5.6c8.7,3.7,16.1,9.1,22.1,16
		c6,6.9,10.6,15.4,13.9,25.4c3.2,10,4.8,21.2,4.8,33.6c0,12.5-1.6,23.8-4.8,33.8c-3.2,10-7.8,18.5-13.9,25.4
		c-6,6.9-13.4,12.3-22.1,16c-8.7,3.7-18.7,5.2-29.8,5.2l-132.1-0.1L62,216.3v-0.1h-0.1V17.3c0,0-34.9,0-45.4,0
		c-10.6,0-11.2,4.3-11.2,14.1c0,9.8,0,230.1,0,230.1H134H152.4z"/>
</g>
</svg>
