<?xml version="1.0" encoding="utf-8"?>
<!-- Generator: Adobe Illustrator 27.9.0, SVG Export Plug-In . SVG Version: 6.00 Build 0)  -->
<svg version="1.1" id="Layer_1" xmlns="http://www.w3.org/2000/svg" xmlns:xlink="http://www.w3.org/1999/xlink" x="0px" y="0px"
	 viewBox="0 0 70.6 69.7" style="enable-background:new 0 0 70.6 69.7;" xml:space="preserve">
<style type="text/css">
	.st0{clip-path:url(#SVGID_00000168097102711926164340000014470212364534279309_);}
	.st1{fill:#730067;}
	.st2{fill:#5B1F61;}
	.st3{clip-path:url(#SVGID_00000133493876415208233980000002902963353414332336_);}
</style>
<g>
	<text transform="matrix(1 0 0 1 -206.291 23.1225)" class="st1" style="font-family:'Roboto-Regular'; font-size:12px;">Approved by</text>
	<g id="Group_2275_00000144313240296143760670000015542054620021906080_" transform="translate(0 20.321)">
		<g>
			<defs>
				<rect id="SVGID_1_" x="-236.2" y="10.1" width="132.6" height="26.4"/>
			</defs>
			<clipPath id="SVGID_00000129913329956212507590000011701325044716871096_">
				<use xlink:href="#SVGID_1_"  style="overflow:visible;"/>
			</clipPath>
			
				<g id="Group_2274_00000088131929468634968330000016973172587877159071_" transform="translate(0 0)" style="clip-path:url(#SVGID_00000129913329956212507590000011701325044716871096_);">
				<path id="Path_1083_00000000925365655927641820000011851814780243845538_" class="st1" d="M-211.9,20.6c-0.5,0.1-1,0-1.4-0.2
					c-0.7-0.3-0.8-0.8-0.6-1.2c0.2-0.5,0.8-0.7,1.3-0.6c0.3,0,0.5,0.1,0.7,0.3c0.1,0,0.1,0,0.2,0c0.8-0.1,1.6-0.3,2.3-0.6l1.2-0.4
					c0.7-0.2,1.3-0.4,2-0.7l0.5-0.2c1.1-0.4,2.1-1,3.1-1.7c0.6-0.4,1.2-1,1.1-1.7c0-0.4-0.3-0.8-0.7-1c-0.5-0.2-0.9-0.3-1.4-0.4
					c-0.6,0-1.1-0.1-1.7-0.1l-0.8,0c-3.6,0.2-7.3,0.8-10.8,1.8c-3.2,0.8-6.3,2-9.2,3.5c-1.3,0.7-2.5,1.5-3.6,2.5
					c-0.4,0.4-0.8,0.9-1.2,1.3c-0.2,0.2-0.3,0.6-0.2,0.9c0,0.3,0.2,0.6,0.6,0.7c1,0.5,2,0.7,3.1,0.8c0.7,0.1,1.3,0.1,2,0.2l0.1,0
					c0.8,0.1,1.6,0.1,2.4,0.2c1,0.1,2.4,0.3,3.8,0.5c0.7,0.1,1.3,0.4,2,0.7c1,0.4,1.8,1.3,2,2.4c0.1,0.6,0,1.2-0.4,1.8
					c-0.6,0.9-1.3,1.7-2.2,2.4c-2.5,1.8-5.3,3.1-8.3,3.9c-1.5,0.4-3,0.7-4.6,0.7c-0.2,0-0.4,0-0.6,0c-0.9,0-1.8-0.2-2.7-0.5
					c-0.3-0.1-0.6-0.2-0.9-0.4c-1.1-0.5-1.6-1.7-1.2-2.8c0.2-0.6,0.5-1.2,1-1.6c0.7-0.5,1.4-1,2.2-1.3c0.4-0.2,0.8-0.2,1.2-0.1
					c0.2,0.1,0.5,0.2,0.6,0.4c0.2,0.3-0.1,0.6-0.3,0.8c-0.2,0.1-0.3,0.2-0.5,0.3c-0.2,0.1-0.5,0.3-0.7,0.5c-0.3,0.2-0.7,0.5-1,0.8
					c-0.3,0.3-0.5,0.6-0.5,1c0,0.2,0.1,0.4,0.2,0.4c0.5,0.4,1.2,0.6,1.8,0.7c1.1,0.1,2.2,0.1,3.3-0.1c3.5-0.5,6.7-1.9,9.6-4
					c0.5-0.4,0.9-0.8,1.3-1.3l0.1-0.1c0.3-0.3,0.4-0.7,0.5-1.1c0.1-0.5-0.1-0.9-0.5-1.2c-0.5-0.4-1-0.6-1.6-0.8
					c-1.1-0.3-2.2-0.5-3.4-0.6l-1.2-0.1c-1.6-0.1-3.2-0.3-4.7-0.5c-0.9-0.1-1.7-0.3-2.5-0.7c-0.3-0.1-0.6-0.3-0.9-0.5
					c-1.2-0.6-1.6-2-1-3.2c0,0,0,0,0,0c0.5-0.9,1.1-1.6,1.9-2.2c1.8-1.4,3.7-2.6,5.8-3.5c3-1.4,6.2-2.4,9.5-3.1
					c2.4-0.6,4.9-1,7.4-1.3c1.8-0.3,3.7-0.2,5.5,0c0.8,0.1,1.6,0.4,2.4,0.8c0.6,0.4,1,1.1,1.1,1.9c0.1,1.1-0.3,2.1-1.1,2.8
					c-1.4,1.2-3,2.1-4.8,2.8l-0.9,0.3c-0.8,0.3-1.7,0.6-2.5,0.8l-1,0.3c-0.6,0.1-1.1,0.2-1.7,0.3L-211.9,20.6z M-184.3,26.8
					c-0.7,0.3-3,1.1-3.7,1.3c-0.1,0-0.2,0.1-0.3,0.1c0.1-0.2,0.2-0.4,0.4-0.6c0.2-0.3,0.4-0.6,0.6-0.9c0.3-0.4,0.5-0.7,0.8-1.1
					c0.2-0.2,0.3-0.5,0.3-0.7c0.1-0.2,0.1-0.4,0-0.6c-0.2-0.2-0.4-0.3-0.6-0.3c-0.3-0.1-0.7-0.1-1,0c-0.6,0.1-1.2,0.3-1.7,0.6
					c-0.5,0.3-0.9,0.7-1.4,1c0-0.1,0-0.2,0-0.3c0-0.2,0-0.4-0.2-0.6c-0.2-0.2-0.6-0.3-0.9-0.3c-0.3,0-0.5,0.1-0.8,0.2
					c-0.2,0.1-0.3,0.1-0.5,0.2c0.1-0.1,0.1-0.2,0.1-0.3c0-0.4-0.3-0.7-0.9-0.8c-0.3-0.1-0.7,0-0.9,0.3l-0.1,0.1
					c-0.1,0.1-0.2,0.2-0.3,0.3c-0.2,0.2-0.4,0.4-0.7,0.4c-0.1,0-0.2,0.1-0.3,0.2l-0.4,0.2c-0.4,0.2-0.8,0.5-1.2,0.7
					c-1.7,1-3.4,1.8-5.3,2.3c-0.3,0.1-0.7,0.2-1.1,0.3c-0.2,0.1-0.5,0-0.7-0.1c0,0-0.1-0.1-0.1-0.2c0-0.1,0-0.1,0-0.2
					c0.3-0.7,0.7-1.2,1.3-1.7c0.4-0.3,0.8-0.6,1.1-1c0.4-0.3,0.4-0.6,0.2-0.9c-0.3-0.2-0.6-0.4-1-0.4c-0.3,0-0.6,0.1-0.8,0.3
					l-0.5,0.4c-0.3-0.3-0.7-0.5-1.1-0.4c-0.4,0-0.7,0.1-1.1,0.1c-2.2,0.5-4.1,1.6-5.6,3.3c-0.2,0.3-0.4,0.6-0.4,1
					c-0.1,0.5,0.2,1.2,1.4,1.3c0.3,0,0.7,0,1,0c0.7-0.1,1.4-0.4,2-0.8c0.5-0.3,0.9-0.6,1.4-0.9l0.1-0.1c0,0.2,0.1,0.4,0.3,0.6
					c0.5,0.5,1.1,0.7,1.7,0.7c0.9,0.1,1.9,0,2.8-0.3c1.3-0.4,2.7-1,3.9-1.6c-0.3,0.4-0.6,0.8-0.9,1.2c-0.1,0.2-0.2,0.4-0.1,0.6
					c0.1,0.2,0.3,0.4,0.6,0.4c0.2,0,0.3,0.1,0.5,0.1c0.3,0,0.7-0.2,0.9-0.4c1-1,2.1-1.9,3.3-2.7c-0.2,0.3-0.3,0.6-0.4,1
					c0,0.4,0.2,0.8,0.7,0.9c0.4,0.1,0.8,0.1,1.2-0.1l0.2-0.1c0.2-0.1,0.4-0.3,0.6-0.4c0.6-0.5,1.2-0.9,1.8-1.4l0.4-0.3
					c-0.2,0.3-0.4,0.5-0.6,0.8c-0.2,0.3-0.3,0.5-0.4,0.8c-0.1,0.2,0,0.5,0.1,0.7c0.2,0.3,0.6,0.5,1,0.5c0.3,0.1,0.7,0.1,1,0
					c1.6-0.3,3.2-0.8,4.7-1.4c0.3-0.1,0.6-0.3,0.8-0.6c0.1-0.2,0-0.4-0.1-0.5C-183.1,26.8-183.4,26.4-184.3,26.8 M-210.4,28.4
					c1-1,2.1-1.7,3.4-2.2c0.3-0.1,0.6-0.2,1-0.3l-0.5,0.3c-0.9,0.6-1.7,1.2-2.6,1.8c-0.5,0.4-1,0.7-1.6,0.9
					C-210.7,28.7-210.6,28.5-210.4,28.4 M-142.5,21.2c-1.8,1.5-3.7,2.9-5.6,4.3c-1,0.7-2,1.4-2.9,2.1s-2,1.3-3,2
					c-0.2,0.2-0.5,0.4-0.9,0.6c-0.3,0.2-0.7,0.4-1,0.6c-0.3,0.2-0.7,0.3-1.1,0.4c-0.4,0.1-0.7,0.1-1.1,0c-0.5-0.1-1-0.6-1.1-1.1
					c-0.1-0.6-0.1-1.2,0-1.9c0.1-0.8,0.3-1.6,0.6-2.3c0.3-0.8,0.6-1.7,0.9-2.5c0.3-0.8,0.6-1.6,0.9-2.3c0.2-0.5,0.4-1,0.5-1.5
					c-0.2,0.1-0.4,0.2-0.5,0.3c-0.3,0.2-0.5,0.4-0.7,0.5c-0.6,0.4-1.2,0.7-1.7,1.1c-0.5,0.4-1.1,0.8-1.7,1.2
					c-1.2,0.9-2.5,1.8-3.6,2.6c-1.2,0.9-2.4,1.8-3.6,2.7c-1.2,0.9-2.4,1.8-3.6,2.7c-1.2,0.9-2.4,1.7-3.7,2.5
					c-0.2,0.1-0.5,0.3-0.9,0.6c-0.4,0.3-0.8,0.5-1.3,0.7c-0.4,0.2-0.8,0.3-1.2,0.3c0,0-0.1,0-0.1,0c-0.5,0-0.8-0.3-1-0.7
					c-0.1-0.3-0.2-0.6-0.2-0.9c0-0.3,0.1-0.6,0.2-0.9c0.1-0.3,0.2-0.6,0.4-0.9c0.1-0.3,0.3-0.5,0.4-0.7c0.3-0.6,0.6-1.2,1-1.8
					c0.3-0.6,0.7-1.1,1-1.7c0.7-1.2,1.5-2.4,2.3-3.5s1.6-2.3,2.4-3.4c0.8-1.1,1.6-2.1,2.4-3.1c0.8-1,1.7-2,2.6-3
					c0.2-0.2,0.5-0.5,0.8-0.8c0.3-0.3,0.6-0.5,1-0.6c0.2-0.1,0.5-0.1,0.7,0.1c0.2,0.1,0.3,0.3,0.4,0.6c0.1,0.2,0.1,0.5,0,0.7
					c-0.1,0.2-0.3,0.4-0.5,0.5c-0.6,0.3-1.1,0.8-1.5,1.3c-0.5,0.6-0.9,1.1-1.3,1.6c-0.7,0.8-1.3,1.6-2,2.5c-0.6,0.8-1.3,1.7-1.9,2.5
					c-0.7,0.9-1.3,1.9-2,2.9c-0.7,1-1.3,1.9-1.9,3c-0.3,0.4-0.5,0.9-0.8,1.3c-0.2,0.4-0.5,0.9-0.7,1.3c-0.1,0.2-0.3,0.5-0.6,0.9
					c-0.2,0.3-0.3,0.5-0.4,0.8c0.2-0.1,0.5-0.2,0.7-0.3c0.3-0.2,0.7-0.4,1-0.6c0.3-0.2,0.6-0.4,1-0.7l0.9-0.6
					c0.8-0.5,1.6-1.1,2.4-1.7c0.8-0.6,1.6-1.2,2.4-1.7c1.6-1.1,3.2-2.3,4.8-3.5c1.5-1.2,3.2-2.4,4.8-3.5c0.2-0.1,0.4-0.3,0.8-0.5
					c0.4-0.3,0.8-0.5,1.3-0.8c0.5-0.3,0.9-0.5,1.4-0.7c0.4-0.2,0.9-0.3,1.3-0.4c0.4,0,0.7,0.1,1,0.4c0.2,0.4,0.3,0.9,0.2,1.4
					c-0.2,0.9-0.4,1.9-0.8,2.7c-0.4,0.9-0.7,1.8-1,2.6c-0.2,0.5-0.3,1-0.5,1.4c-0.1,0.5-0.3,0.9-0.4,1.4c-0.1,0.2-0.1,0.5-0.2,0.9
					c-0.1,0.2-0.1,0.5-0.1,0.7c2.1-1,4.1-2.1,6-3.4c2-1.4,3.9-2.8,5.8-4.3c1-0.8,2.1-1.6,3.1-2.5c1-0.9,2-1.7,3-2.6
					c0.4-0.4,0.8-0.8,1.2-1.2c0.4-0.4,0.8-0.8,1.2-1.2c0.1-0.1,0.2-0.2,0.4-0.4c0.2-0.2,0.3-0.3,0.4-0.5c0.1-0.2,0.3-0.4,0.4-0.6
					c0.1-0.1,0.1-0.3,0.2-0.4c-0.1,0-0.1-0.1-0.2-0.1c-0.1-0.1-0.2-0.2-0.2-0.4c0-0.3,0-0.5,0.1-0.7c0.1-0.2,0.3-0.4,0.6-0.4
					c0.3-0.1,0.6,0,0.8,0.2c0.2,0.2,0.4,0.4,0.5,0.6c0.2,0.5,0.2,1,0,1.5c-0.2,0.5-0.5,1-0.8,1.5c-0.3,0.5-0.7,0.9-1.1,1.3
					c-0.4,0.4-0.7,0.7-1,1C-138.8,18.1-140.6,19.7-142.5,21.2 M-104.3,10.3c-0.4-0.2-0.9-0.3-1.3-0.1l-0.1,0
					c-0.4,0.1-0.8,0.3-1.2,0.5c-0.6,0.4-1.1,0.8-1.7,1.3c-0.2,0.2-0.4,0.3-0.6,0.5c-2.5,2.4-4.9,4.9-7.1,7.6
					c-0.2,0.3-0.5,0.6-0.8,0.9c-0.5,0.6-1.1,1.2-1.6,1.8l0,0c-0.3-0.3-0.7-0.4-1.1-0.4c-0.1,0-0.3,0-0.4,0c-0.2,0-0.4,0.1-0.5,0.1
					c-0.5,0.1-1,0.2-1.4,0.4c-1.9,0.7-3.9,1.3-5.9,1.6c0-0.1,0-0.3,0-0.4c-0.1-0.3-0.3-0.6-0.6-0.8c-0.6-0.3-1.3-0.3-1.9-0.1
					c-0.2,0.1-0.4,0.2-0.6,0.3c-0.1-0.1-0.3-0.2-0.5-0.3c-0.2-0.1-0.5-0.1-0.7-0.1c-0.4,0-0.8,0.1-1.2,0.2c-0.3,0.1-0.6,0.2-1,0.4
					c-1.3,0.5-2.6,0.9-4,1.3c0-0.2,0-0.3,0-0.5c-0.1-0.3-0.3-0.8-1.2-1c-0.5-0.1-1.1,0-1.6,0.3c-0.1,0-0.1,0.1-0.2,0.1
					c-0.1-0.1-0.2-0.2-0.4-0.2c-0.3-0.1-0.7-0.1-1.1,0c-0.1,0-0.2,0.1-0.3,0.1c-1.6,0.7-2.9,1.9-3.8,3.5c-0.1,0.2-0.2,0.5-0.2,0.8
					c0,0.3,0.1,0.7,0.3,0.9c0.4,0.4,1,0.6,1.6,0.6c0.1,0,0.1,0,0.2,0c0.3,0,0.5,0,0.8-0.1c0.7-0.1,1.4-0.4,2-0.7
					c0.9-0.6,1.7-1.2,2.5-2c0.2-0.2,0.4-0.3,0.6-0.3c0.6-0.1,1.3-0.3,1.9-0.5c0.2-0.1,0.4-0.2,0.7-0.2c-0.1,0.1-0.2,0.3-0.3,0.4
					c-0.2,0.3-0.4,0.7-0.5,1c-0.1,0.3,0,0.7,0.2,0.9c0.5,0.5,1.2,0.7,1.9,0.6c0.3,0,0.6,0,0.9-0.1c0.7-0.1,1.4-0.3,2.1-0.7
					c1-0.5,1.9-1.2,2.7-1.9c0.2-0.2,0.4-0.2,0.7-0.2c1.2-0.1,2.4-0.3,3.6-0.5c-0.5,0.5-0.8,1-1.1,1.6c-0.4,0.6-0.2,1.3,0.4,1.7
					c0,0,0,0,0,0c0.6,0.4,1.4,0.5,2.1,0.3c0.3,0,0.5-0.1,0.8-0.2c0.5-0.2,0.9-0.4,1.4-0.6c0.3-0.2,0.6-0.4,0.9-0.5l0.5-0.3
					c0.8,1,2.1,1.5,3.3,1.2c0.1,0,0.2,0,0.3,0c0.9-0.1,2-0.2,5.5-2c0.4-0.2,0.4-0.5,0.4-0.7c0-0.3-0.3-0.4-0.6-0.6
					c-0.4-0.1-0.8-0.1-1.2,0.1c-1.6,0.7-3.2,1.3-4.9,1.7c-0.2,0-0.8,0.1-0.9-0.4c0-0.1,0-0.2,0-0.3c0-0.1,0-0.1,0-0.2
					c0-0.1,0-0.3,0.4-0.5c0.8-0.6,9.5-8.1,13.7-13.5c0.2-0.3,0.3-0.5,0.4-0.8C-103.6,11.4-103.4,10.8-104.3,10.3 M-135,27.6
					C-135,27.6-135,27.5-135,27.6l0.1-0.3c0.1-0.3,0.3-0.5,0.5-0.7c0.8-0.8,1.7-1.5,2.8-1.9c0,0.3,0.1,0.7,0.3,0.9l-0.1,0.1
					c-0.7,0.6-1.4,1-2.2,1.5c-0.4,0.2-0.7,0.3-1.1,0.4C-134.9,27.6-134.9,27.6-135,27.6 M-123.9,27.1c0.9-1.1,2-2.1,3.2-2.8
					c0.1-0.1,0.3-0.2,0.5-0.2c0.1,0,0.2,0,0.3,0.1c0.1,0.1,0.3,0.1,0.5,0.1c-0.2,0.3-0.4,0.7-0.6,1c-0.1,0.1-0.2,0.3-0.3,0.3
					c-0.9,0.6-1.6,1.1-2.3,1.5c-0.4,0.3-0.9,0.5-1.3,0.7c-0.1,0-0.2,0.1-0.3,0.1C-124.2,27.5-124.1,27.3-123.9,27.1 M-108.7,14.4
					c0.9-0.8,1.8-1.5,2.7-2.1c-0.3,0.3-0.6,0.6-0.9,1c-0.4,0.4-0.8,0.9-1.4,1.4c-2.2,2.3-5.5,5.7-8.1,7.9
					C-114,19.9-110.1,15.7-108.7,14.4 M-144.4,28c0-0.1,0.1-0.2,0.1-0.3c0.3-0.5,0.6-0.9,1-1.2c0.4-0.4,0.8-0.7,1.3-0.9
					c0,0.3,0.1,0.5,0.2,0.8l0,0c-0.5,0.5-1.1,0.9-1.7,1.3c-0.2,0.1-0.5,0.2-0.7,0.3C-144.3,27.9-144.4,28-144.4,28 M-150.5,33.7
					c0.1,0,11.6-1.4,40-0.2c0.5,0.1,0.9-0.2,1-0.7c0-0.5-0.4-0.8-0.9-0.8c0,0,0,0,0,0c-28.7-1.2-40,0.8-40.3,0.8
					c-0.2,0-0.4,0.2-0.4,0.5c0,0,0,0,0,0c0.1,0.2,0.3,0.4,0.5,0.3C-150.6,33.7-150.6,33.7-150.5,33.7"/>
				<path id="Path_1084_00000082354828977631093870000016957189234049746305_" class="st2" d="M-107.2,32.8c0,0.4-0.3,0.7-0.7,0.7
					c-0.4,0-0.7-0.3-0.7-0.7s0.3-0.7,0.7-0.7l0,0C-107.5,32.1-107.2,32.4-107.2,32.8"/>
			</g>
		</g>
	</g>
</g>
<g id="Group_2441_00000047020360828570847960000002951216636954487196_" transform="translate(0 0)">
	<g>
		<defs>
			<rect id="SVGID_00000085939924962389639230000005715313345066035127_" x="-84.7" y="3" width="70.8" height="63.6"/>
		</defs>
		<clipPath id="SVGID_00000026846036901237220940000011714596222840128178_">
			<use xlink:href="#SVGID_00000085939924962389639230000005715313345066035127_"  style="overflow:visible;"/>
		</clipPath>
		
			<g id="Group_2440_00000177458695761505986700000006841490608770297265_" style="clip-path:url(#SVGID_00000026846036901237220940000011714596222840128178_);">
			<path id="Path_1257_00000030452608883259873410000002085864713170653883_" class="st1" d="M-83.4,31h1.6
				c-0.5-1.7-0.5-3.4-0.1-5.1c0.6-2,2.5-3.5,6.3-4.9c2.8-1,5.4-2.5,7.6-4.6c1.3-1.3,2.4-2.9,3.2-4.6c0.4-0.8,0.9-1.5,1.5-2.2
				c0.8-0.5,1.7-0.7,2.6-0.6h0.7c2,0,4.4-0.1,6.1-2.8c1.3-2,4.1-1.6,6.2-0.9c1,0.3,1.6,1.4,1.3,2.4c-0.4,1.3-0.3,2.7,0.2,4
				c0.9,1.7,2.5,3,4.4,3.5c2.9,1,4.6,1.1,5.7,0.3c0.6-0.5,1-1.3,1-2.1c0.1-0.9,0.1-1.8,0-2.7c0-0.8-0.1-1.7,0-2.7
				c0-1.1,0.1-2.1,0.4-3.2c0.1,0.2,0.2,0.5,0.3,0.8c0.1,0.3,0.2,0.5,0.3,0.9l0,0.1c0.5,2.2,1.4,4.2,2.5,6.2c0.9,1.5,2,3,3.2,4.3
				c1.6,1.8,3.4,3.5,5.2,5c2,1.6,3.7,3.6,4.9,5.8h1.8c-1.4-2.7-3.3-5.1-5.7-7C-30.5,14.1-31.8,9-32.5,6.3l0-0.1
				c-0.1-0.3-0.2-0.6-0.3-0.9c-0.2-0.5-0.4-1-0.7-1.5C-33.8,3.3-34.3,3-34.9,3c-0.4,0.1-0.7,0.3-0.9,0.6c-0.2,0.3-0.3,0.7-0.4,1
				c-0.3,1.1-0.4,2.3-0.4,3.4c0,1,0,2,0,2.8v0c0,1.6,0.1,3-0.4,3.4c-0.3,0.2-0.6,0.2-0.9,0.2c-1.1-0.1-2.3-0.3-3.3-0.7
				c-3.1-1-4.3-2.9-3.6-5.6c0.2-0.9,0.1-1.8-0.3-2.6c-0.4-0.8-1.2-1.4-2-1.7c-1.3-0.5-2.7-0.7-4.1-0.7c-0.7,0-1.5,0.2-2.1,0.6
				c-0.7,0.4-1.3,0.9-1.8,1.6c-1.3,2.1-3.1,2.1-5.1,2.1c-1.4,0-2.9,0-4,0.9c-0.8,0.8-1.4,1.6-1.9,2.6c-1.4,2.5-3.3,5.9-9.9,8.4
				c-1.8,0.6-3.5,1.5-5,2.6c-1.1,0.8-1.9,2-2.3,3.3c-0.3,1.3-0.4,2.7-0.2,4C-83.6,29.9-83.5,30.5-83.4,31"/>
			<path id="Path_1258_00000025427895773762686020000001481122665797351854_" class="st1" d="M-23.6,57.4c-0.7,0-1.4,0.1-2.1,0.3
				l-4.8,1.1c-0.4,0-0.7,0.2-0.9,0.5c-0.4,0.7,0,1.8,1.5,3.8l0.3,0.3c0.6,0.8,1.2,1.5,1.8,2.3c0.4,0.6,1.1,0.9,1.8,1l0-0.1h0v0.1
				c0.1,0,0.2,0,0.3,0c0.5-0.1,1-0.4,1.3-0.9c0.4-0.5,0.6-1.1,0.8-1.8c0.3-0.8,0.6-1.6,0.9-2.3c0.3-0.6,0.5-1.2,0.8-1.9
				c0.3-0.6,0.2-1.3-0.2-1.9C-22.5,57.5-23,57.3-23.6,57.4 M-23.5,59.5c-0.1,0.4-0.4,0.9-0.6,1.5l0,0c-0.3,0.7-0.7,1.5-1,2.4
				c-0.5,1.5-0.9,1.6-0.8,1.6s-0.2,0-0.7-0.5c-0.6-0.7-1.2-1.4-1.7-2.1l-0.3-0.4c-0.5-0.6-0.9-1.2-1.2-1.8l4.5-1
				c0.6-0.2,1.3-0.3,1.9-0.2C-23.4,59.2-23.4,59.3-23.5,59.5"/>
			<path id="Path_1259_00000168821189429054185340000005536096443822816394_" class="st1" d="M-19.4,42c-0.1,0.1-0.1,0.3-0.2,0.4
				c-0.4,0.9-0.7,1.8-0.9,2.8c-0.6,2.5-1.7,5-3.2,7.1c-2.3,3.1-5.6,2.1-8.8,1.2c-1.1-0.4-2.2-0.6-3.4-0.8c-0.9-0.1-1.7-1.2-2.7-2.7
				c-1.4-2.2-3.2-4.1-5.4-5.6c-1.4-0.9-3-1.6-4.7-2c-1.4-0.3-2.9-0.5-4.4-0.5h-0.1v0.1l0,0V42c-0.7,0-1.4,0-2.1,0.1
				c-3.4,0.2-6.7,0.8-9.9,1.8c-2.1,0.7-4.1,1.5-6.1,2.5c-2.6,1.2-3.8,1.8-5.1,1c-1.4-0.7-2-1.1-2.4-1.6c-0.5-1-0.7-2.2-0.8-3.3
				l0-0.1c0-0.2-0.1-0.3-0.1-0.5h-1.6c0,0.3,0.1,0.6,0.1,0.8c0.1,1.4,0.4,2.7,1,3.9c0.8,1,1.8,1.7,3,2.2c1,0.5,2.1,0.7,3.2,0.4
				c1.2-0.3,2.3-0.8,3.4-1.4c4.8-2.4,10-3.9,15.4-4.2c9.5-0.7,12.9,3.9,15.3,7.3c0.5,0.8,1.1,1.5,1.7,2.1c0.6,0.6,1.3,1.1,2.2,1.2
				c1,0.2,2.1,0.4,3.1,0.7c1.6,0.5,3.3,0.9,5,1l0-0.1v0V56h0.3c1,0,1.9-0.2,2.7-0.7c1-0.5,1.8-1.2,2.5-2.1c1.6-2.3,2.8-4.9,3.5-7.6
				c0.3-1.3,0.8-2.5,1.5-3.6L-19.4,42z"/>
			<path id="Path_1260_00000008831794069820041190000005118463246896727181_" class="st1" d="M-69.6,26.6h-2.7l-0.5,1.7h-1.6
				l2.7-7.8h1.6l2.7,7.8h-1.6L-69.6,26.6z M-72,25.4h2l-1-3.1h0L-72,25.4z"/>
			<path id="Path_1261_00000024718751863008486380000001270420391012764079_" class="st1" d="M-63.4,27.4c-0.2,0.3-0.4,0.5-0.7,0.7
				c-0.8,0.4-1.8,0.3-2.4-0.3c-0.4-0.5-0.6-1.2-0.5-1.8v-3.5h1.6V26c0,0.3,0,0.6,0.2,0.9c0.2,0.2,0.4,0.3,0.6,0.3
				c0.2,0,0.4,0,0.6-0.1c0.2-0.1,0.3-0.2,0.4-0.4v-4.2h1.6v5.8h-1.3L-63.4,27.4z"/>
			<path id="Path_1262_00000062189724066588125580000016395984147505382018_" class="st1" d="M-57.6,26.7c0-0.2-0.1-0.3-0.2-0.4
				c-0.3-0.2-0.6-0.3-0.9-0.3c-0.6-0.1-1.1-0.3-1.6-0.6c-0.3-0.3-0.5-0.7-0.5-1.1c0-0.5,0.2-1,0.6-1.3c0.5-0.4,1.1-0.6,1.7-0.5
				c0.6,0,1.3,0.1,1.8,0.5c0.4,0.3,0.7,0.8,0.6,1.3l0,0h-1.5c0-0.2-0.1-0.4-0.2-0.6c-0.4-0.3-0.9-0.3-1.3,0
				c-0.1,0.1-0.2,0.3-0.2,0.5c0,0.2,0.1,0.3,0.2,0.4c0.3,0.2,0.6,0.3,0.9,0.3c0.6,0.1,1.1,0.3,1.6,0.6c0.3,0.3,0.5,0.7,0.5,1.1
				c0,0.5-0.2,1-0.7,1.3c-0.5,0.4-1.1,0.5-1.8,0.5c-0.7,0-1.3-0.2-1.8-0.6c-0.4-0.3-0.7-0.8-0.6-1.3l0,0h1.4c0,0.3,0.1,0.5,0.3,0.7
				c0.2,0.1,0.5,0.2,0.8,0.2c0.2,0,0.5,0,0.7-0.2C-57.6,27-57.5,26.9-57.6,26.7"/>
			<path id="Path_1263_00000080901587488139810590000006940650499248712363_" class="st1" d="M-53.2,21v1.4h1v1.1h-1v3
				c0,0.2,0,0.3,0.1,0.5c0.1,0.1,0.2,0.2,0.4,0.1c0.1,0,0.1,0,0.2,0c0.1,0,0.1,0,0.2,0l0.1,1.1c-0.2,0.1-0.3,0.1-0.5,0.1
				c-0.2,0-0.3,0-0.5,0c-0.5,0-0.9-0.1-1.2-0.4c-0.3-0.4-0.5-0.9-0.4-1.4v-3h-0.8v-1.1h0.8V21H-53.2z"/>
			<path id="Path_1264_00000007428491727006098340000009620998415038826895_" class="st1" d="M-48.1,23.8l-0.6,0
				c-0.2,0-0.4,0-0.6,0.1c-0.2,0.1-0.3,0.2-0.3,0.4v3.9h-1.6v-5.8h1.5l0.1,0.9c0.1-0.3,0.3-0.5,0.5-0.7c0.2-0.2,0.5-0.3,0.7-0.3
				c0.1,0,0.1,0,0.2,0c0.1,0,0.1,0,0.2,0L-48.1,23.8z"/>
			<path id="Path_1265_00000072263543050585750860000005575877962206536888_" class="st1" d="M-43.9,28.3c-0.1-0.1-0.1-0.3-0.1-0.4
				c0-0.1-0.1-0.3-0.1-0.5c-0.2,0.3-0.4,0.5-0.6,0.7c-0.3,0.2-0.6,0.3-0.9,0.3c-0.5,0-1-0.1-1.4-0.5c-0.3-0.3-0.5-0.8-0.5-1.3
				c0-0.5,0.2-1,0.7-1.3c0.6-0.4,1.2-0.5,1.9-0.5h0.9v-0.5c0-0.2-0.1-0.5-0.2-0.6c-0.4-0.3-0.9-0.3-1.2,0c-0.1,0.1-0.2,0.3-0.2,0.5
				l-1.5,0l0,0c0-0.5,0.2-1,0.6-1.3c0.5-0.4,1.1-0.6,1.8-0.5c0.6,0,1.2,0.2,1.7,0.5c0.4,0.4,0.7,0.9,0.6,1.5v2.4
				c0,0.3,0,0.5,0.1,0.8c0,0.2,0.1,0.5,0.2,0.7L-43.9,28.3z M-45.4,27.2c0.3,0,0.5-0.1,0.7-0.2c0.2-0.1,0.3-0.3,0.4-0.5v-0.8h-0.9
				c-0.3,0-0.5,0.1-0.8,0.2c-0.2,0.2-0.3,0.4-0.3,0.6c0,0.2,0.1,0.3,0.2,0.5C-45.7,27.2-45.5,27.2-45.4,27.2"/>
			
				<rect id="Rectangle_2232_00000163754726556956018440000003179784944370872736_" x="-41.3" y="19.9" class="st1" width="1.6" height="8.4"/>
			<path id="Path_1266_00000000221092755970772150000015682808152098427045_" class="st1" d="M-36.8,21.1h-1.6v-1.2h1.6V21.1z
				 M-36.8,28.3h-1.6v-5.8h1.6V28.3z"/>
			<path id="Path_1267_00000034795709714782447530000017436185523753014958_" class="st1" d="M-32.1,28.3c-0.1-0.1-0.1-0.3-0.1-0.4
				c0-0.1-0.1-0.3-0.1-0.5c-0.2,0.3-0.4,0.5-0.6,0.7c-0.3,0.2-0.6,0.3-0.9,0.3c-0.5,0-1-0.1-1.4-0.5c-0.3-0.3-0.5-0.8-0.5-1.3
				c0-0.5,0.2-1,0.7-1.3c0.6-0.4,1.2-0.5,1.9-0.5h0.9v-0.5c0-0.2-0.1-0.5-0.2-0.6c-0.4-0.3-0.9-0.3-1.2,0c-0.1,0.1-0.2,0.3-0.2,0.5
				l-1.5,0l0,0c0-0.5,0.2-1,0.6-1.3c0.5-0.4,1.1-0.6,1.8-0.5c0.6,0,1.2,0.2,1.7,0.5c0.4,0.4,0.7,0.9,0.6,1.5v2.4
				c0,0.3,0,0.5,0.1,0.8c0,0.2,0.1,0.5,0.2,0.7L-32.1,28.3z M-33.6,27.2c0.3,0,0.5-0.1,0.7-0.2c0.2-0.1,0.3-0.3,0.4-0.5v-0.8h-0.9
				c-0.3,0-0.5,0.1-0.8,0.2c-0.2,0.2-0.3,0.4-0.3,0.6c0,0.2,0.1,0.3,0.2,0.5C-33.9,27.2-33.8,27.2-33.6,27.2"/>
			<path id="Path_1268_00000067222720020192223930000009463442372052565941_" class="st1" d="M-28.2,22.5l0.1,0.8
				c0.2-0.3,0.4-0.5,0.7-0.7c0.3-0.2,0.6-0.3,1-0.2c0.5,0,1,0.2,1.4,0.6c0.4,0.5,0.5,1.1,0.5,1.7v3.6h-1.6v-3.6
				c0-0.3-0.1-0.6-0.2-0.8c-0.2-0.2-0.5-0.3-0.7-0.2c-0.2,0-0.4,0-0.6,0.1c-0.2,0.1-0.3,0.2-0.4,0.4v4.2h-1.6v-5.8H-28.2z"/>
			<path id="Path_1269_00000120537654503141035940000017116722186362575016_" class="st1" d="M-83.3,32.8l0.1,0.8
				c0.2-0.3,0.4-0.5,0.7-0.6c0.3-0.2,0.6-0.2,1-0.2c0.3,0,0.7,0.1,1,0.2c0.3,0.2,0.5,0.4,0.6,0.7c0.2-0.3,0.4-0.6,0.7-0.7
				c0.3-0.2,0.7-0.3,1-0.3c0.5,0,1,0.2,1.4,0.6c0.4,0.5,0.5,1.2,0.5,1.8v3.5H-78V35c0-0.3,0-0.6-0.2-0.9c-0.2-0.2-0.4-0.3-0.6-0.3
				c-0.2,0-0.4,0-0.6,0.1c-0.2,0.1-0.3,0.2-0.4,0.4c0,0.1,0,0.1,0,0.2c0,0,0,0.1,0,0.1v3.8h-1.6V35c0-0.3,0-0.6-0.2-0.9
				c-0.2-0.2-0.4-0.3-0.6-0.3c-0.2,0-0.4,0-0.6,0.1c-0.2,0.1-0.3,0.2-0.4,0.3v4.2h-1.6v-5.8H-83.3z"/>
			<path id="Path_1270_00000143608818582423873920000010859431786454892697_" class="st1" d="M-71.8,38.6c-0.1-0.1-0.1-0.3-0.1-0.4
				c0-0.1-0.1-0.3-0.1-0.5c-0.2,0.3-0.4,0.5-0.6,0.7c-0.3,0.2-0.6,0.3-0.9,0.3c-0.5,0-1-0.1-1.4-0.5c-0.3-0.3-0.5-0.8-0.5-1.3
				c0-0.5,0.2-1,0.7-1.3c0.6-0.4,1.2-0.5,1.9-0.5h0.9v-0.5c0-0.2-0.1-0.5-0.2-0.6c-0.4-0.3-0.9-0.3-1.2,0c-0.1,0.1-0.2,0.3-0.2,0.5
				l-1.5,0l0,0c0-0.5,0.2-1,0.6-1.3c0.5-0.4,1.1-0.6,1.8-0.5c0.6,0,1.2,0.2,1.7,0.5c0.4,0.4,0.7,0.9,0.6,1.5v2.4
				c0,0.3,0,0.5,0.1,0.8c0,0.2,0.1,0.5,0.2,0.7L-71.8,38.6z M-73.2,37.5c0.3,0,0.5-0.1,0.7-0.2c0.2-0.1,0.3-0.3,0.4-0.5V36h-0.9
				c-0.3,0-0.5,0.1-0.8,0.2c-0.2,0.2-0.3,0.4-0.3,0.6c0,0.2,0.1,0.3,0.2,0.5C-73.6,37.5-73.4,37.5-73.2,37.5"/>
			<path id="Path_1271_00000038380567887123792590000011908178407656511126_" class="st1" d="M-69.5,35.7c0-0.8,0.2-1.6,0.6-2.2
				c0.4-0.6,1-0.9,1.7-0.8c0.3,0,0.5,0.1,0.8,0.2c0.2,0.1,0.5,0.3,0.6,0.5v-3.2h1.6v8.4h-1.3l-0.1-0.7c-0.2,0.3-0.4,0.5-0.6,0.6
				c-0.3,0.1-0.6,0.2-0.9,0.2c-0.6,0-1.3-0.3-1.7-0.8c-0.4-0.6-0.6-1.3-0.6-2.1V35.7z M-68,35.8c0,0.4,0.1,0.8,0.3,1.2
				c0.2,0.3,0.5,0.5,0.8,0.4c0.2,0,0.4,0,0.6-0.1c0.2-0.1,0.3-0.2,0.4-0.4v-2.5c-0.1-0.2-0.2-0.3-0.4-0.4c-0.2-0.1-0.4-0.2-0.6-0.2
				c-0.4,0-0.7,0.2-0.8,0.5c-0.2,0.4-0.3,0.9-0.3,1.3L-68,35.8z"/>
			<path id="Path_1272_00000122718153691853359480000007263866559544325303_" class="st1" d="M-60.5,38.7c-0.8,0-1.5-0.3-2-0.8
				c-0.5-0.6-0.8-1.3-0.8-2v-0.2c0-0.8,0.2-1.5,0.7-2.1c0.5-0.6,1.2-0.9,1.9-0.8c0.7,0,1.3,0.2,1.8,0.7c0.5,0.5,0.7,1.2,0.7,1.9v0.9
				h-3.5l0,0c0,0.3,0.2,0.7,0.4,0.9c0.2,0.3,0.6,0.4,0.9,0.4c0.3,0,0.6,0,0.9-0.1c0.3-0.1,0.5-0.2,0.8-0.3l0.4,1
				c-0.3,0.2-0.6,0.4-0.9,0.5C-59.6,38.6-60.1,38.7-60.5,38.7 M-60.6,33.9c-0.3,0-0.5,0.1-0.7,0.3c-0.2,0.3-0.3,0.6-0.3,0.9l0,0h1.9
				V35c0-0.3-0.1-0.6-0.2-0.8C-60.1,34-60.4,33.9-60.6,33.9"/>
			<path id="Path_1273_00000024684645760368840680000005445277261243677318_" class="st1" d="M-54.8,36.7c0-0.4,0.1-0.7,0.3-1
				c0.3-0.3,0.6-0.6,1-0.9c-0.2-0.3-0.4-0.5-0.5-0.8c-0.1-0.2-0.2-0.5-0.2-0.8c0-0.5,0.2-1,0.5-1.4c0.4-0.3,0.9-0.5,1.4-0.5
				c0.5,0,0.9,0.2,1.3,0.5c0.3,0.3,0.5,0.7,0.5,1.2c0,0.3-0.1,0.6-0.2,0.9c-0.2,0.3-0.4,0.5-0.7,0.7l-0.5,0.3l1.3,1.6
				c0.1-0.2,0.2-0.4,0.3-0.6c0.1-0.2,0.1-0.5,0.1-0.7h1.1c0,0.4-0.1,0.8-0.2,1.2c-0.1,0.4-0.3,0.7-0.5,1l1,1.2l0,0h-1.6l-0.4-0.4
				c-0.3,0.2-0.6,0.3-0.9,0.4c-0.3,0.1-0.6,0.1-0.9,0.1c-0.6,0-1.2-0.2-1.7-0.6C-54.6,37.8-54.8,37.2-54.8,36.7 M-52.4,37.6
				c0.2,0,0.3,0,0.5-0.1c0.2,0,0.3-0.1,0.5-0.2l-1.5-1.7l-0.1,0.1c-0.1,0.1-0.3,0.3-0.3,0.5c-0.1,0.1-0.1,0.3-0.1,0.4
				c0,0.3,0.1,0.5,0.3,0.7C-52.9,37.5-52.7,37.6-52.4,37.6 M-52.9,33.2c0,0.1,0,0.3,0.1,0.4c0.1,0.2,0.2,0.3,0.3,0.5l0.4-0.3
				c0.2-0.1,0.3-0.2,0.4-0.4c0.1-0.1,0.1-0.3,0.1-0.4c0-0.2-0.1-0.3-0.2-0.4c-0.1-0.1-0.3-0.2-0.5-0.2c-0.2,0-0.4,0.1-0.5,0.2
				C-52.9,32.8-52.9,33-52.9,33.2"/>
			<path id="Path_1274_00000036226511754657761310000012053917220804855698_" class="st1" d="M-45.4,35.6c0-0.8,0.2-1.5,0.7-2.1
				c0.5-0.6,1.2-0.9,2-0.8c0.8,0,1.5,0.3,2,0.8c0.5,0.6,0.8,1.4,0.7,2.1v0.1c0,0.8-0.2,1.5-0.7,2.1c-1.1,1.1-2.9,1.1-4,0
				c-0.5-0.6-0.8-1.4-0.7-2.1V35.6z M-43.9,35.7c0,0.4,0.1,0.9,0.3,1.3c0.2,0.3,0.5,0.5,0.9,0.5c0.4,0,0.7-0.2,0.9-0.5
				c0.2-0.4,0.3-0.8,0.3-1.3v-0.1c0-0.4-0.1-0.9-0.3-1.3c-0.2-0.3-0.5-0.5-0.9-0.5c-0.4,0-0.7,0.2-0.9,0.5c-0.2,0.4-0.3,0.8-0.3,1.3
				L-43.9,35.7z"/>
			<path id="Path_1275_00000103977331324367268390000006495894071140980100_" class="st1" d="M-33.9,36.5L-33.9,36.5l0.8-3.7h1.5
				l-1.5,5.8h-1.3l-1.1-3.5h0l-1.1,3.5H-38l-1.5-5.8h1.5l0.8,3.7h0l1.1-3.7h1L-33.9,36.5z"/>
			<path id="Path_1276_00000071522630763737077680000000149282979296890011_" class="st1" d="M-29.5,32.8l0.1,0.8
				c0.2-0.3,0.4-0.5,0.7-0.7c0.3-0.2,0.6-0.3,1-0.2c0.5,0,1,0.2,1.4,0.6c0.4,0.5,0.5,1.1,0.5,1.7v3.6h-1.6v-3.6
				c0-0.3-0.1-0.6-0.2-0.8c-0.2-0.2-0.5-0.3-0.7-0.2c-0.2,0-0.4,0-0.6,0.1c-0.2,0.1-0.3,0.2-0.4,0.4v4.2h-1.6v-5.8H-29.5z"/>
			<path id="Path_1277_00000157986429787883852090000017692267563118145727_" class="st1" d="M-22.1,38.7c-0.8,0-1.5-0.3-2-0.8
				c-0.5-0.6-0.8-1.3-0.8-2v-0.2c0-0.8,0.2-1.5,0.7-2.1c1-1.1,2.7-1.1,3.7-0.1c0.5,0.5,0.7,1.2,0.7,1.9v0.9h-3.5l0,0
				c0,0.3,0.2,0.7,0.4,0.9c0.2,0.3,0.6,0.4,0.9,0.4c0.3,0,0.6,0,0.9-0.1c0.3-0.1,0.5-0.2,0.8-0.3l0.4,1c-0.3,0.2-0.6,0.4-0.9,0.5
				C-21.3,38.6-21.7,38.7-22.1,38.7 M-22.3,33.9c-0.3,0-0.5,0.1-0.7,0.3c-0.2,0.3-0.3,0.6-0.3,0.9l0,0h1.9V35c0-0.3-0.1-0.6-0.2-0.8
				C-21.7,34-22,33.9-22.3,33.9"/>
			<path id="Path_1278_00000053513899986362772830000005985691813269258424_" class="st1" d="M-19.1,35.7c0-0.8,0.2-1.6,0.6-2.2
				c0.4-0.6,1-0.9,1.7-0.8c0.3,0,0.5,0.1,0.8,0.2c0.2,0.1,0.5,0.3,0.6,0.5v-3.2h1.6v8.4h-1.3l-0.1-0.7c-0.2,0.3-0.4,0.5-0.6,0.6
				c-0.3,0.1-0.6,0.2-0.9,0.2c-0.7,0-1.3-0.3-1.7-0.8c-0.4-0.6-0.6-1.3-0.6-2.1L-19.1,35.7z M-17.5,35.8c0,0.4,0.1,0.8,0.3,1.2
				c0.2,0.3,0.5,0.5,0.8,0.4c0.2,0,0.4,0,0.6-0.1c0.2-0.1,0.3-0.2,0.4-0.4v-2.5c-0.1-0.2-0.2-0.3-0.4-0.4c-0.2-0.1-0.4-0.2-0.6-0.2
				c-0.4,0-0.7,0.2-0.8,0.5c-0.2,0.4-0.3,0.9-0.3,1.3L-17.5,35.8z"/>
		</g>
	</g>
</g>
<g id="_x33_0XrEU.tif">
	
		<image style="overflow:visible;" width="527" height="537" id="Layer_1_00000118389586405077439820000010899418737188052656_" xlink:href="4CF92B7B803B2BD.png"  transform="matrix(0.1144 0 0 0.1144 5.1676 4.1521)">
	</image>
</g>
</svg>
