<svg xmlns="http://www.w3.org/2000/svg" xmlns:xlink="http://www.w3.org/1999/xlink" width="41.976" height="41.976" viewBox="0 0 41.976 41.976">
  <defs>
    <clipPath id="clip-path">
      <rect id="Rectangle_487" data-name="Rectangle 487" width="41.976" height="41.976" transform="translate(0 0)" fill="none" stroke="#5c708a" stroke-width="5"/>
    </clipPath>
  </defs>
  <g id="Group_714" data-name="Group 714" transform="translate(0 0)" clip-path="url(#clip-path)">
    <g id="Path_2771" data-name="Path 2771" transform="translate(-0.126 -0.125)" fill="none" stroke-linecap="round" stroke-linejoin="round">
      <path d="M5.876,29.423a16.65,16.65,0,1,0,0-23.547A16.651,16.651,0,0,0,5.876,29.423Z" stroke="none"/>
      <path d="M 17.64946174621582 29.29978561401367 C 20.7614803314209 29.29978561401367 23.68731117248535 28.08798408508301 25.88774108886719 25.88785552978516 C 28.08796119689941 23.68763542175293 29.2996711730957 20.76211547851562 29.2996711730957 17.65022468566895 C 29.2996711730957 14.53819465637207 28.08787155151367 11.61236476898193 25.88798141479492 9.412175178527832 C 23.68730163574219 7.211804866790771 20.7614803314209 6.000004768371582 17.64946174621582 6.000004768371582 C 14.53757095336914 6.000004768371582 11.61206150054932 7.211724758148193 9.41184139251709 9.411934852600098 C 7.211201190948486 11.61257457733154 5.999250888824463 14.5383243560791 5.999250888824463 17.65022468566895 C 5.999250888824463 20.76199531555176 7.211111068725586 23.68742561340332 9.411830902099609 25.88785552978516 C 11.61205101013184 28.08807563781738 14.53757095336914 29.29978561401367 17.64946174621582 29.29978561401367 M 17.64945983886719 34.29978561401367 C 13.38829326629639 34.29978561401367 9.127236366271973 32.67432022094727 5.876301288604736 29.42338562011719 C -0.6264289021492004 22.9215145111084 -0.6264289021492004 12.3791446685791 5.876301288604736 5.876404762268066 C 12.37817001342773 -0.6254643797874451 22.9205322265625 -0.625465989112854 29.42327117919922 5.876404762268066 C 35.92514038085938 12.3791446685791 35.92514038085938 22.9215145111084 29.42327117919922 29.42338562011719 C 26.17190170288086 32.67432022094727 21.91062545776367 34.29978561401367 17.64945983886719 34.29978561401367 Z" stroke="none" fill="#5c708a"/>
    </g>
    <rect id="Rectangle_486" data-name="Rectangle 486" width="0.017" height="16.685" transform="translate(29.292 29.304) rotate(-45)" fill="none" stroke="#5c708a" stroke-linecap="round" stroke-linejoin="round" stroke-width="5"/>
  </g>
</svg>

