<?xml version="1.0" encoding="utf-8"?>
<!-- Generator: Adobe Illustrator 28.2.0, SVG Export Plug-In . SVG Version: 6.00 Build 0)  -->
<svg version="1.1" baseProfile="tiny" id="Group_48"
	 xmlns="http://www.w3.org/2000/svg" xmlns:xlink="http://www.w3.org/1999/xlink" x="0px" y="0px" width="172.1px" height="50.3px"
	 viewBox="0 0 172.1 50.3" overflow="visible" xml:space="preserve">
<g>
	<g id="Group_47" transform="translate(0 0)">
		<g id="Group_42" transform="translate(0 0)">
			<path id="Path_47" d="M166,15.9c0.4-0.1,1.1-0.3,1.8-0.4c0.4,1.6,1.1,4.9,1.9,8.5L166,15.9z M127.7,10.3
				c-0.1,0.3-0.2,0.5-0.2,0.8c-0.1,0.4-0.2,0.8-0.4,1.2c-0.4,1.2-2.5,2.5-9.8,2.5c-0.3,0-0.6,0-0.9,0h-0.6c-0.2,0-0.7,0-1.4,0
				l1.9-8.8c4.8,1.1,8.9,2.2,9.8,2.5c0.6,0.1,1.1,0.4,1.4,0.9C127.8,9.7,127.8,10,127.7,10.3 M113.6,19.2c-1,4.6-2.4,9.2-4,13.7
				c-4.2,8.4-15.8,8.7-17.2,8.7H45.6v-0.4h12.1c0-1.7-0.1-9-0.1-14.8c0-6.6,2.2-10.2,2.3-10.4l0-0.1l2.7-0.7l0.1,0.4l-2.5,0.7
				c-1.5,3.1-2.3,6.6-2.2,10.1c0,5.8,0.1,13.1,0.1,14.8l0,0v0h34.1c0.1,0,12.7,0.2,16.9-8.4c1.6-4.4,3-9,4-13.6
				c0.6-2.7,0.9-4.5,0.9-4.5l0.4,0.1C114.4,14.8,114.1,16.6,113.6,19.2 M54.7,14.3C54.7,14.3,54.7,14.3,54.7,14.3L54.7,14.3z
				 M84.2,2.3c0.4,0.2,0.8,0.3,1.1,0.5C74,6.6,63.3,11.5,60.7,12.5c-2.4,1-5,1.4-7.6,1.3C58.3,11.6,75.5,4.8,84.2,2.3 M100.5,3.7
				c4.8,0.2,9.5,0.9,14.2,1.9l-2,9.2c-5.7,0-17.7,0-27.6,0l-14,0l0.1-2.3C77,9.9,83.7,7,86.2,5.9C89.4,4.5,94.5,3.7,100.5,3.7
				 M8.6,27H4.4c4.4-3.6,9.4-6.2,14.8-7.8l2.7-0.1C17.1,21,12.6,23.6,8.6,27 M9.3,31.1h-5c-0.5,0-0.8-0.4-0.8-0.9c0,0,0,0,0,0
				c0-0.5,0.4-0.9,0.8-0.9l0,0h5c0.5,0,0.8,0.4,0.8,0.9C10.2,30.8,9.8,31.1,9.3,31.1 M172.1,34.5c-0.6-6.9-3.9-20-3.9-20l1.8-2.7
				l-2.1-1.9c-1.6,0.8-8.4,1.8-8.4,1.8c-3.5-1.4-7.1-2.5-10.8-3.2c-6.1-1.9-32.6-9.6-52.7-8.2c-8.4,0-18.9,3.7-21.7,4.7
				c-8.7,3-19,7-23.5,8.8c-0.5-0.3-1-0.5-1.1-0.8c0,0-25-0.3-45,11.1c-0.3,0.2-0.3,1-0.7,1.2c-3.3,2.3-4.1,4-4.1,7.3s2,9.4,2,9.4
				s-1.7,1.8-1.7,2.6s1.2,1.8,4.3,1.8c1.9,0,5.5,0,8.8,0c0-0.2,0-0.3-0.1-0.5h3.5c0.1,0.1,0.2,0.2,0.2,0.3c-2-2.8-3.1-6.1-3.1-9.5
				c0-8.1,6.6-14.7,14.7-14.7c0,0,0,0,0,0c8.1,0,14.7,6.6,14.7,14.7c0,0,0,0,0,0c0,3.3-1,6.5-2.9,9.2h5.2c0,0.2,0,0.4,0,0.5h1.2v0
				c0,0,75.7-0.1,76.2-0.1c0-0.2,0-0.4,0-0.6h4.5c-1.8-2.7-2.8-5.8-2.8-9c0-8.1,6.6-14.7,14.7-14.7c8.1,0,14.7,6.6,14.7,14.7
				c0,0,0,0,0,0c0,3-0.9,5.9-2.5,8.5c1.4-0.1,2.7-0.3,4-0.4c0,0.3-0.1,0.5-0.1,0.8c0.1,0,0.1,0,0.1,0s9.2-1.5,9.8-1.8
				C166.2,43.2,172.5,36.1,172.1,34.5"/>
		</g>
		<g id="Group_43" transform="translate(127.649 25.042)">
			<path id="Path_48" d="M11.6,0C5.2,0,0,5.2,0,11.6C0,18,5.2,23.2,11.6,23.2c6.4,0,11.6-5.2,11.6-11.6C23.2,5.2,18,0,11.6,0
				C11.6,0,11.6,0,11.6,0 M21.8,8.4l-6.6,2.4c-0.1-0.4-0.2-0.7-0.4-1l6.7-2C21.7,7.9,21.8,8.2,21.8,8.4 M21,6.4l-6.9,1.9
				C14,8.2,13.9,8.1,13.7,8l-0.3-7C16.6,1.6,19.4,3.5,21,6.4 M13.7,10.1c0.4,0,0.7,0.3,0.7,0.7c0,0.4-0.3,0.7-0.7,0.7
				c-0.4,0-0.7-0.3-0.7-0.7C13,10.4,13.3,10.1,13.7,10.1 M13.6,13.4c0,0.4-0.3,0.7-0.7,0.7c-0.4,0-0.7-0.3-0.7-0.7
				c0-0.4,0.3-0.7,0.7-0.7c0,0,0,0,0,0C13.3,12.8,13.6,13.1,13.6,13.4 M11.2,0.8c0.1,0,0.2,0,0.3,0c0.1,0,0.2,0,0.4,0l0.2,7
				c-0.4-0.1-0.7-0.1-1.1,0L11.2,0.8z M11.6,8.7c0.4,0,0.7,0.3,0.7,0.7c0,0.4-0.3,0.7-0.7,0.7c-0.4,0-0.7-0.3-0.7-0.7l0,0
				C10.9,9,11.2,8.7,11.6,8.7 M11.6,10.3c0.7,0,1.3,0.6,1.3,1.3s-0.6,1.3-1.3,1.3c-0.7,0-1.3-0.6-1.3-1.3
				C10.3,10.9,10.9,10.3,11.6,10.3C11.6,10.3,11.6,10.3,11.6,10.3 M10.9,13.4c0,0.4-0.3,0.7-0.7,0.7c-0.4,0-0.7-0.3-0.7-0.7
				c0-0.4,0.3-0.7,0.7-0.7c0,0,0,0,0,0C10.6,12.8,10.9,13.1,10.9,13.4L10.9,13.4 M10.2,10.8c0,0.4-0.3,0.7-0.7,0.7
				c-0.4,0-0.7-0.3-0.7-0.7c0-0.4,0.3-0.7,0.7-0.7C9.9,10.1,10.2,10.4,10.2,10.8C10.2,10.8,10.2,10.8,10.2,10.8 M9.7,1L9.5,8
				C9.3,8.1,9.2,8.2,9,8.3L2.2,6.4C3.8,3.5,6.5,1.6,9.7,1 M1.6,7.7l6.7,2c-0.2,0.3-0.3,0.7-0.4,1L1.3,8.4C1.4,8.2,1.5,7.9,1.6,7.7
				 M0.8,11.6c0-0.6,0-1.1,0.1-1.7l6.5,2.4c0.1,0.3,0.2,0.7,0.3,1l-3.9,5.8C1.9,17.1,0.8,14.4,0.8,11.6 M5,20.1l4-5.8
				c0.3,0.3,0.6,0.5,0.9,0.7l-4.3,5.5C5.4,20.4,5.2,20.2,5,20.1 M11.6,22.3c-1.6,0-3.2-0.4-4.7-1.1l4.3-5.5c0.3,0,0.5,0,0.8,0
				l4.3,5.5C14.8,22,13.2,22.3,11.6,22.3 M17.6,20.5l-4.3-5.5c0.3-0.2,0.6-0.4,0.9-0.7l4,5.8C18,20.2,17.8,20.3,17.6,20.5
				 M19.3,19.1l-3.9-5.8c0.1-0.3,0.2-0.6,0.3-1l6.5-2.4C22.7,13.2,21.7,16.6,19.3,19.1"/>
		</g>
		<g id="Group_44" transform="translate(125.733 22.934)">
			<path id="Path_49" d="M13.6,0C6.1,0,0,6.1,0,13.6c0,0,0,0,0,0c0,3.2,1,6.2,2.9,8.8c4.8,5.9,13.4,6.7,19.3,2
				c0.8-0.7,1.5-1.4,2.2-2.2h0.1c1.7-2.5,2.7-5.5,2.7-8.5C27.2,6.1,21.1,0,13.6,0C13.6,0,13.6,0,13.6,0 M13.5,25.3
				c-6.4,0-11.6-5.2-11.6-11.6S7.1,2.1,13.5,2.1c6.4,0,11.6,5.2,11.6,11.6C25.1,20.1,19.9,25.3,13.5,25.3
				C13.5,25.3,13.5,25.3,13.5,25.3"/>
		</g>
		<g id="Group_45" transform="translate(16.965 25.042)">
			<path id="Path_50" d="M11.6,0C5.2,0,0,5.2,0,11.6C0,18,5.2,23.2,11.6,23.2c6.4,0,11.6-5.2,11.6-11.6C23.2,5.2,18,0,11.6,0
				C11.6,0,11.6,0,11.6,0 M21.8,8.4l-6.6,2.4c-0.1-0.4-0.2-0.7-0.4-1l6.7-2C21.7,7.9,21.8,8.2,21.8,8.4 M21,6.4l-6.9,1.9
				C14,8.2,13.9,8.1,13.7,8l-0.3-7C16.6,1.6,19.4,3.5,21,6.4 M13.7,10.1c0.4,0,0.7,0.3,0.7,0.7c0,0.4-0.3,0.7-0.7,0.7
				c-0.4,0-0.7-0.3-0.7-0.7C13,10.4,13.3,10.1,13.7,10.1 M13.6,13.4c0,0.4-0.3,0.7-0.7,0.7c-0.4,0-0.7-0.3-0.7-0.7
				c0-0.4,0.3-0.7,0.7-0.7c0,0,0,0,0,0C13.3,12.8,13.6,13.1,13.6,13.4 M11.2,0.8c0.1,0,0.2,0,0.3,0c0.1,0,0.2,0,0.4,0l0.2,7
				c-0.4-0.1-0.7-0.1-1.1,0L11.2,0.8z M11.6,8.7c0.4,0,0.7,0.3,0.7,0.7c0,0.4-0.3,0.7-0.7,0.7c-0.4,0-0.7-0.3-0.7-0.7l0,0
				C10.9,9,11.2,8.7,11.6,8.7 M11.6,10.3c0.7,0,1.3,0.6,1.3,1.3s-0.6,1.3-1.3,1.3c-0.7,0-1.3-0.6-1.3-1.3
				C10.3,10.9,10.9,10.3,11.6,10.3C11.6,10.3,11.6,10.3,11.6,10.3 M10.9,13.4c0,0.4-0.3,0.7-0.7,0.7c-0.4,0-0.7-0.3-0.7-0.7
				c0-0.4,0.3-0.7,0.7-0.7c0,0,0,0,0,0C10.6,12.8,10.9,13.1,10.9,13.4 M10.2,10.8c0,0.4-0.3,0.7-0.7,0.7c-0.4,0-0.7-0.3-0.7-0.7
				c0-0.4,0.3-0.7,0.7-0.7C9.9,10.1,10.2,10.4,10.2,10.8C10.2,10.8,10.2,10.8,10.2,10.8 M9.7,1L9.5,8C9.3,8.1,9.2,8.2,9,8.3L2.2,6.4
				C3.8,3.5,6.5,1.6,9.7,1 M1.6,7.7l6.7,2c-0.2,0.3-0.3,0.7-0.4,1L1.3,8.4C1.4,8.2,1.5,7.9,1.6,7.7 M0.8,11.6c0-0.6,0-1.1,0.1-1.7
				l6.5,2.4c0.1,0.3,0.2,0.7,0.3,1l-3.9,5.8C1.9,17.1,0.8,14.4,0.8,11.6 M5,20.1l4-5.8c0.3,0.3,0.6,0.5,0.9,0.7l-4.3,5.5
				C5.4,20.4,5.2,20.2,5,20.1 M11.6,22.3c-1.6,0-3.2-0.4-4.7-1.1l4.3-5.5c0.3,0,0.5,0,0.8,0l4.3,5.5C14.8,22,13.2,22.3,11.6,22.3
				 M17.6,20.5l-4.3-5.5c0.3-0.2,0.6-0.4,0.9-0.7l4,5.8C18,20.2,17.8,20.3,17.6,20.5 M19.3,19.1l-3.9-5.8c0.1-0.3,0.2-0.6,0.3-1
				l6.5-2.4C22.7,13.2,21.7,16.6,19.3,19.1"/>
		</g>
		<g id="Group_46" transform="translate(15.049 22.934)">
			<path id="Path_51" d="M13.6,0C6.1,0,0,6.1,0,13.6c0,0,0,0,0,0c0,3.2,1,6.2,2.9,8.8c4.8,5.9,13.4,6.7,19.3,2
				c0.8-0.7,1.5-1.4,2.2-2.2h0.1c1.7-2.5,2.7-5.5,2.7-8.5C27.2,6.1,21.1,0,13.6,0C13.6,0,13.6,0,13.6,0 M13.5,25.3
				c-6.4,0-11.6-5.2-11.6-11.6S7.1,2.1,13.5,2.1c6.4,0,11.6,5.2,11.6,11.6C25.1,20.1,19.9,25.3,13.5,25.3
				C13.5,25.3,13.5,25.3,13.5,25.3"/>
		</g>
	</g>
</g>
</svg>
