<svg xmlns="http://www.w3.org/2000/svg" xmlns:xlink="http://www.w3.org/1999/xlink" width="172.143" height="60.268" viewBox="0 0 172.143 60.268">
  <defs>
    <clipPath id="clip-path">
      <path id="Path_62" data-name="Path 62" d="M0,34.1H172.143V-26.171H0Z" transform="translate(0 26.171)" fill="#231f1f"/>
    </clipPath>
  </defs>
  <g id="Group_57" data-name="Group 57" transform="translate(0 0)" clip-path="url(#clip-path)">
    <g id="Group_54" data-name="Group 54" transform="translate(0.001 0)">
      <path id="Path_59" data-name="Path 59" d="M94.059,9.892q-.846-.539-1.849-1.131-.563-.328-1.179-.675l.048-.129c.021-.058.046-.134.081-.228a47.817,47.817,0,0,0,1.577-6.068S92.3,1.5,91.5,1.233c-.541-.182-1.248-.417-2.1-.686-3.051-.965-7.97-2.395-13.8-3.618-.083-.018-.166-.037-.253-.053-.32-.067-.643-.131-.969-.2l1.444-1.7S44.335-8.453,23.5-7.387c-1.619.083-3.358.175-5.257.341C9.109-6.254-3.767-3.776-25.013,7.43c0,0-.373.046-1.041.134l-.007,0c-2.33.306-8.23,1.117-14.467,2.218-3.431.606-6.962,1.3-10.057,2.052-.092.021-.191.048-.3.071a82.721,82.721,0,0,0-8.684,2.464c-.578.207-1.161.428-1.743.663q-1.009.408-2.013.875c-.246.117-.5.237-.742.362-.309.154-.613.313-.919.477-.808.433-1.605.9-2.377,1.414-.511.339-.956.785-1.5,1.073a22.5,22.5,0,0,0-3.307,1.6,10.906,10.906,0,0,0-.014,1.5c0,.03,0,.062,0,.094,0,.074.007.15.012.228.175,3.652.309,9.522,2.987,13.562.032.051.067.1.1.147.051.074.1.147.157.221s.1.143.157.214c.258.339.868,1,.373,1.6a2.391,2.391,0,0,1-1.158.638,4.337,4.337,0,0,0-.456.166c-1.985.859-1.154,2.57,4.127,2.927,0,0,.166.214,9.8.366l.438.007,1.511.021h.38c-.111-.334-.212-.672-.3-1.013a16.819,16.819,0,0,1-.532-3.143c-.035-.431-.051-.866-.051-1.306A17.169,17.169,0,0,1-46.3,22.336c.357-.214.721-.417,1.094-.6a17.081,17.081,0,0,1,7.751-1.845,17.09,17.09,0,0,1,7.9,1.918,17.148,17.148,0,0,1,3.438,2.354,17.126,17.126,0,0,1,5.842,12.905,17.167,17.167,0,0,1-.854,5.356h.35q2.518-.017,5.158-.032,2.725-.014,5.566-.037,2.453-.017,4.976-.037c14.262-.111,30-.281,44.869-.539q2.974-.052,5.893-.108l.166,0c.6-.014,1.191-.023,1.782-.037,1.2-.023,2.39-.048,3.572-.074l1.087-.023a17.181,17.181,0,0,1-.576-3.827c0-.039,0-.083,0-.122q-.007-.259-.007-.518a17.136,17.136,0,0,1,.824-5.274s0,0,0,0c.062-.193.129-.391.2-.585v0a17.184,17.184,0,0,1,4.023-6.3c.083-.083.166-.164.251-.244a17.178,17.178,0,0,1,28.73,15.735l.718-.041c2.059-.12,4.728-3.6,7.15-8.067,3.056-5.635,5.72-12.845,6.282-16.889.018-.124.032-.249.046-.366.009-.088.018-.173.025-.256,0,0-1.034-1.787-5.888-4.882M-66.747,32.943v.025c-.028.721-.166,1.2-.479,1.389l-1.262-5.833-2.178-.8a4.188,4.188,0,0,1,.2-.937s.018-.06.064-.166c.1-.014.223-.03.359-.046.907-.1,2.432-.2,2.556.253.078.281.145.562.2.85a31.354,31.354,0,0,1,.481,3.807,12.9,12.9,0,0,1,.053,1.455m30.2-20.792a2.458,2.458,0,0,1-.6.3c-1.115.394-2.685.8-4.4,1.214-1.046.249-2.144.5-3.226.748-2.476.566-4.871,1.119-6.34,1.621a.614.614,0,0,0-.06.021c-.951.329-.847.728-.541.937a.648.648,0,0,0,.117.067c1.112.527-.38.725-.38.725-6.367.857-7.369.912-7.369.912a82.411,82.411,0,0,1-9.156.539l1.5-1.073a31.625,31.625,0,0,1,4.037-2.25c7.685-1.665,18-3.173,24.012-3.871,2.42-.283,2.667-.1,2.411.111m52.411-1.589-22.83.963a3.011,3.011,0,0,1-.322,0l-9.133-.41,1.018-1.239a1.432,1.432,0,0,1,1.011-.4l3.4-.184a1.332,1.332,0,0,0,1.149-.541.406.406,0,0,0,.035-.1A.457.457,0,0,0-9.8,8.57V7.19c0-.173-.263-.309-.573-.3l-4.765.161a2.562,2.562,0,0,0-1.847.7l-2.618,3.212-1.278-.058-.078,0-.046,0a.6.6,0,0,1-.246-1.1c.709-.449,1.642-1.027,2.763-1.693C-11.481,3.941,2.882-3.7,15.911-5.022c1.734-.175,3.549-.322,5.46-.44ZM-13.929,8.9l.847-.854,3.141-.115V8.57a.456.456,0,0,1-.041.182ZM52.255,7.423l-6.393,1.8a2.8,2.8,0,0,1-.619.1l-21.575.91L25.028-5.639a235.687,235.687,0,0,1,30.057,1.1s.339.032.914.092ZM68.006-1.031l-5.858,4.62-1.5,1.179a3.65,3.65,0,0,1-.9.523l.9-9.251c2.2.237,4.691.523,6.768.792a1.2,1.2,0,0,1,.59,2.137m22.17,9.241c-2.446.124-7.411.339-13.071.348-8.085.009,7.779-4.548,7.779-4.548s2.535-.742-.613-1.923c0,0-6.729-2.492-14.073-5.025l4.249.067q.846.176,1.67.357A135.285,135.285,0,0,1,91.834,1.912a49.453,49.453,0,0,1-1.442,5.66c-.1.3-.17.514-.216.638" transform="translate(72.194 7.592)" fill="#231f1f"/>
    </g>
    <g id="Group_55" data-name="Group 55" transform="translate(19.342 29.543)">
      <path id="Path_60" data-name="Path 60" d="M6.734.226a15.359,15.359,0,1,0,18.427,11.5A15.362,15.362,0,0,0,6.734.226M5.168,7.669q.463-.563.974-1.08a14.067,14.067,0,0,1,1.1-.979,11.419,11.419,0,0,1,1.237-.857,6.815,6.815,0,0,1,.691-.371,4.933,4.933,0,0,1,.762-.313,5.968,5.968,0,0,1-.168.8c-.069.256-.154.5-.239.744A11.174,11.174,0,0,1,8.9,7a12.536,12.536,0,0,1-.76,1.255c-.1.136-.193.274-.292.405A12.492,12.492,0,0,1,8.59,10.3,10.516,10.516,0,0,1,9,11.683c.051.239.1.486.129.735a5.71,5.71,0,0,1,.062.785A6.21,6.21,0,0,1,8.5,12.82c-.214-.138-.417-.286-.613-.433a10.026,10.026,0,0,1-1.078-.951A13.43,13.43,0,0,1,5.066,9.269L4.53,8.445ZM1.333,10.506a11.816,11.816,0,0,1,.256-1.43l1.881,1.17c0,.021.014.041.018.064a13.161,13.161,0,0,1,.35,1.428c.028.164.058.327.081.491a13.534,13.534,0,0,1,1.686.642,11.288,11.288,0,0,1,1.262.691c.21.129.412.272.617.426a5.451,5.451,0,0,1,.592.514,5.966,5.966,0,0,1-.753.212c-.249.058-.493.094-.737.129a11.312,11.312,0,0,1-1.439.09c-.352,0-.7-.016-1.052-.046a14.738,14.738,0,0,1-1.711-.256l-.96-.2-.1-1c-.009-.094-.016-.189-.025-.288-.03-.389-.046-.774-.046-1.165a13.794,13.794,0,0,1,.083-1.469M.62,18.147A11.908,11.908,0,0,1-.239,16.91c-.131-.223-.256-.451-.373-.7a5.781,5.781,0,0,1-.309-.758,5.872,5.872,0,0,1,.806.166c.253.069.5.154.744.242a10.959,10.959,0,0,1,1.377.622,12.8,12.8,0,0,1,1.255.76c.136.1.274.193.408.29A12.769,12.769,0,0,1,5.313,16.8a10.766,10.766,0,0,1,1.379-.405c.239-.053.481-.1.737-.131a5.706,5.706,0,0,1,.783-.062,5.271,5.271,0,0,1-.387.686c-.134.216-.279.419-.426.613a10.537,10.537,0,0,1-.953,1.08,13.273,13.273,0,0,1-2.169,1.746l-.822.534-.776-.638A14.379,14.379,0,0,1,1.6,19.245a13.51,13.51,0,0,1-.981-1.1M9.642,23l-.2.96-1,.1a13.219,13.219,0,0,1-1.451.074,13.688,13.688,0,0,1-1.469-.081,11.03,11.03,0,0,1-1.485-.272c-.249-.062-.5-.136-.751-.226a6,6,0,0,1-.758-.32,6.191,6.191,0,0,1,.691-.449c.23-.131.461-.249.7-.359A11.81,11.81,0,0,1,5.32,21.9a14.218,14.218,0,0,1,1.43-.35c.161-.028.325-.055.491-.081a13.519,13.519,0,0,1,.64-1.686,11.318,11.318,0,0,1,.691-1.264c.131-.2.269-.412.426-.615a6.236,6.236,0,0,1,.509-.594,5.9,5.9,0,0,1,.216.758c.053.249.1.491.129.737a10.894,10.894,0,0,1,.09,1.437A13.614,13.614,0,0,1,9.642,23M10.757,7.374l.2-.96,1-.1a13.22,13.22,0,0,1,1.451-.074,13.754,13.754,0,0,1,1.469.081,11.337,11.337,0,0,1,1.481.272c.249.062.5.138.755.226a6,6,0,0,1,.758.32,6.289,6.289,0,0,1-.691.449c-.23.131-.465.249-.7.359a11.631,11.631,0,0,1-1.407.532,13.907,13.907,0,0,1-1.43.35c-.164.028-.327.058-.491.081a13.182,13.182,0,0,1-.642,1.686,11.157,11.157,0,0,1-.689,1.267c-.131.2-.272.41-.426.613a7.019,7.019,0,0,1-.514.6,5.234,5.234,0,0,1-.212-.76c-.058-.249-.1-.491-.129-.737a11.283,11.283,0,0,1-.092-1.437,13.313,13.313,0,0,1,.3-2.763m4.474,15.335a14.493,14.493,0,0,1-.976,1.08,14.407,14.407,0,0,1-1.1.979,11.26,11.26,0,0,1-1.241.857,6.356,6.356,0,0,1-.691.371,4.877,4.877,0,0,1-.758.313,5.332,5.332,0,0,1,.168-.8c.069-.256.15-.5.239-.744a11.849,11.849,0,0,1,.617-1.377,13.241,13.241,0,0,1,.765-1.257c.1-.136.193-.274.29-.405a12.492,12.492,0,0,1-.739-1.647,10.875,10.875,0,0,1-.405-1.379c-.051-.239-.1-.486-.134-.735a6.111,6.111,0,0,1-.058-.785,6.388,6.388,0,0,1,.684.382c.216.138.419.286.615.433a11.31,11.31,0,0,1,1.078.951,13.277,13.277,0,0,1,1.741,2.167l.539.824Zm3.834-2.837a11.956,11.956,0,0,1-.272,1.485c-.064.249-.136.5-.226.748a5.554,5.554,0,0,1-.32.758,5.732,5.732,0,0,1-.447-.689c-.134-.233-.251-.461-.359-.7a11.679,11.679,0,0,1-.534-1.409,12.633,12.633,0,0,1-.348-1.428q-.045-.245-.083-.491a12.8,12.8,0,0,1-1.686-.642,11.129,11.129,0,0,1-1.264-.689c-.2-.131-.412-.272-.613-.428a5.971,5.971,0,0,1-.6-.511,5.88,5.88,0,0,1,.758-.214c.249-.058.493-.094.737-.129a10.877,10.877,0,0,1,1.435-.088,12.979,12.979,0,0,1,2.766.3l.96.2.1,1a14.432,14.432,0,0,1,.076,1.451,13.794,13.794,0,0,1-.083,1.469m1.448-5.117c-.258-.069-.5-.154-.744-.242a10.519,10.519,0,0,1-1.377-.619,12.726,12.726,0,0,1-1.255-.762q-.207-.145-.408-.29a12.628,12.628,0,0,1-1.647.739,10.335,10.335,0,0,1-1.377.405c-.242.053-.486.1-.737.131a5.706,5.706,0,0,1-.783.062,5.856,5.856,0,0,1,.382-.686c.138-.214.279-.417.431-.613a10.238,10.238,0,0,1,.953-1.08,13.438,13.438,0,0,1,2.165-1.746l.827-.534.776.638q.56.459,1.078.974a14.433,14.433,0,0,1,.981,1.1,12.016,12.016,0,0,1,.854,1.239c.134.221.256.449.373.693a5.609,5.609,0,0,1,.313.758,5.666,5.666,0,0,1-.806-.166" transform="translate(5.168 0.173)" fill="#231f1f"/>
    </g>
    <g id="Group_56" data-name="Group 56" transform="translate(125.743 29.543)">
      <path id="Path_61" data-name="Path 61" d="M6.734.226a15.359,15.359,0,1,0,18.427,11.5A15.362,15.362,0,0,0,6.734.226M5.168,7.669q.463-.563.974-1.08a14.067,14.067,0,0,1,1.1-.979,11.419,11.419,0,0,1,1.237-.857,6.815,6.815,0,0,1,.691-.371,4.933,4.933,0,0,1,.762-.313,5.968,5.968,0,0,1-.168.8c-.069.256-.154.5-.239.744A11.174,11.174,0,0,1,8.9,7a12.536,12.536,0,0,1-.76,1.255c-.1.136-.193.274-.292.405A12.492,12.492,0,0,1,8.59,10.3,10.516,10.516,0,0,1,9,11.683c.051.239.1.486.129.735a5.71,5.71,0,0,1,.062.785A6.21,6.21,0,0,1,8.5,12.82c-.214-.138-.417-.286-.613-.433a10.026,10.026,0,0,1-1.078-.951A13.43,13.43,0,0,1,5.066,9.269L4.53,8.445ZM1.333,10.506a11.816,11.816,0,0,1,.256-1.43l1.881,1.17c0,.021.014.041.018.064a13.161,13.161,0,0,1,.35,1.428c.028.164.058.327.081.491a13.534,13.534,0,0,1,1.686.642,11.288,11.288,0,0,1,1.262.691c.21.129.412.272.617.426a5.451,5.451,0,0,1,.592.514,5.966,5.966,0,0,1-.753.212c-.249.058-.493.094-.737.129a11.312,11.312,0,0,1-1.439.09c-.352,0-.7-.016-1.052-.046a14.738,14.738,0,0,1-1.711-.256l-.96-.2-.1-1c-.009-.094-.016-.189-.025-.288-.03-.389-.046-.774-.046-1.165a13.794,13.794,0,0,1,.083-1.469M.62,18.147A12.272,12.272,0,0,1-.239,16.91c-.131-.223-.256-.451-.373-.7a5.781,5.781,0,0,1-.309-.758,5.872,5.872,0,0,1,.806.166c.253.069.5.154.744.242a10.959,10.959,0,0,1,1.377.622,12.8,12.8,0,0,1,1.255.76c.136.1.274.193.408.29A12.769,12.769,0,0,1,5.313,16.8a10.766,10.766,0,0,1,1.379-.405c.239-.053.481-.1.737-.131a5.706,5.706,0,0,1,.783-.062,5.271,5.271,0,0,1-.387.686c-.134.216-.279.419-.426.613a10.537,10.537,0,0,1-.953,1.08,13.273,13.273,0,0,1-2.169,1.746l-.822.534-.776-.638A14.379,14.379,0,0,1,1.6,19.245a13.51,13.51,0,0,1-.981-1.1M9.642,23l-.2.96-1,.1a13.219,13.219,0,0,1-1.451.074,13.688,13.688,0,0,1-1.469-.081,11.03,11.03,0,0,1-1.485-.272c-.249-.062-.5-.136-.751-.226a6,6,0,0,1-.758-.32,6.191,6.191,0,0,1,.691-.449c.23-.131.461-.249.7-.359A11.81,11.81,0,0,1,5.32,21.9a14.218,14.218,0,0,1,1.43-.35c.161-.028.325-.055.491-.081a13.519,13.519,0,0,1,.64-1.686,11.318,11.318,0,0,1,.691-1.264c.131-.2.269-.412.426-.615a6.236,6.236,0,0,1,.509-.594,5.9,5.9,0,0,1,.216.758c.053.249.1.491.129.737a10.894,10.894,0,0,1,.09,1.437A13.614,13.614,0,0,1,9.642,23M10.757,7.374l.2-.96,1-.1a13.22,13.22,0,0,1,1.451-.074,13.754,13.754,0,0,1,1.469.081,11.337,11.337,0,0,1,1.481.272c.249.062.5.138.755.226a6,6,0,0,1,.758.32,6.289,6.289,0,0,1-.691.449c-.23.131-.465.249-.7.359a11.631,11.631,0,0,1-1.407.532,13.907,13.907,0,0,1-1.43.35c-.164.028-.327.058-.491.081a13.182,13.182,0,0,1-.642,1.686,11.157,11.157,0,0,1-.689,1.267c-.131.2-.272.41-.426.613a7.019,7.019,0,0,1-.514.6,5.234,5.234,0,0,1-.212-.76c-.058-.249-.1-.491-.129-.737a11.283,11.283,0,0,1-.092-1.437,13.313,13.313,0,0,1,.3-2.763m4.474,15.335a14.493,14.493,0,0,1-.976,1.08,14.407,14.407,0,0,1-1.1.979,11.26,11.26,0,0,1-1.241.857,6.149,6.149,0,0,1-.691.371,4.877,4.877,0,0,1-.758.313,5.332,5.332,0,0,1,.168-.8c.069-.256.15-.5.239-.744a11.849,11.849,0,0,1,.617-1.377,13.241,13.241,0,0,1,.765-1.257c.1-.136.193-.274.29-.405a12.492,12.492,0,0,1-.739-1.647,10.875,10.875,0,0,1-.405-1.379c-.051-.239-.1-.486-.134-.735a6.111,6.111,0,0,1-.058-.785,6.388,6.388,0,0,1,.684.382c.216.138.419.286.615.433a11.31,11.31,0,0,1,1.078.951,13.277,13.277,0,0,1,1.741,2.167l.539.824Zm3.834-2.837a11.956,11.956,0,0,1-.272,1.485c-.064.249-.136.5-.226.748a5.554,5.554,0,0,1-.32.758,5.732,5.732,0,0,1-.447-.689c-.134-.233-.251-.461-.359-.7a11.679,11.679,0,0,1-.534-1.409,12.633,12.633,0,0,1-.348-1.428q-.045-.245-.083-.491a12.8,12.8,0,0,1-1.686-.642,11.129,11.129,0,0,1-1.264-.689c-.2-.131-.412-.272-.613-.428a5.971,5.971,0,0,1-.6-.511,5.88,5.88,0,0,1,.758-.214c.249-.058.493-.094.737-.129a10.877,10.877,0,0,1,1.435-.088,12.979,12.979,0,0,1,2.766.3l.96.2.1,1a14.432,14.432,0,0,1,.076,1.451,13.794,13.794,0,0,1-.083,1.469m1.448-5.117c-.258-.069-.5-.154-.744-.242a10.519,10.519,0,0,1-1.377-.619,12.726,12.726,0,0,1-1.255-.762q-.207-.145-.408-.29a12.628,12.628,0,0,1-1.647.739,10.335,10.335,0,0,1-1.377.405c-.242.053-.486.1-.737.131a5.706,5.706,0,0,1-.783.062,5.856,5.856,0,0,1,.382-.686c.138-.214.279-.417.431-.613a10.238,10.238,0,0,1,.953-1.08,13.438,13.438,0,0,1,2.165-1.746l.827-.534.776.638q.56.459,1.078.974a14.433,14.433,0,0,1,.981,1.1,12.016,12.016,0,0,1,.854,1.239c.134.221.256.449.373.693a5.609,5.609,0,0,1,.313.758,5.733,5.733,0,0,1-.806-.166" transform="translate(5.168 0.173)" fill="#231f1f"/>
    </g>
  </g>
</svg>
