<?xml version="1.0" encoding="utf-8"?>
<!-- Generator: Adobe Illustrator 26.3.1, SVG Export Plug-In . SVG Version: 6.00 Build 0)  -->
<svg version="1.1" id="Layer_1" xmlns="http://www.w3.org/2000/svg" xmlns:xlink="http://www.w3.org/1999/xlink" x="0px" y="0px"
	 viewBox="0 0 150 150" style="enable-background:new 0 0 150 150;" xml:space="preserve">
<style type="text/css">
	.st0{fill:#00A99D;}
</style>
<path id="Twitter" class="st0" d="M142,33.4c-5,2.2-10.3,3.7-15.8,4.3c5.7-3.4,10-8.8,12.1-15.2c-5.4,3.2-11.3,5.5-17.5,6.7
	C110.4,18.2,93,17.7,81.9,28.1c-5.5,5.2-8.6,12.4-8.6,19.9c0,2.1,0.2,4.2,0.7,6.3c-22.1-1.1-42.7-11.5-56.7-28.7
	c-7.3,12.6-3.6,28.6,8.5,36.7c-4.4-0.1-8.6-1.3-12.5-3.4v0.3c0,13.1,9.2,24.3,22,26.9c-2.4,0.6-4.8,1-7.2,1c-1.7,0-3.5-0.2-5.2-0.5
	c3.6,11.2,13.9,18.9,25.7,19.1c-9.7,7.6-21.7,11.8-34.1,11.8c-2.2,0-4.4-0.1-6.6-0.4c12.6,8.1,27.2,12.4,42.1,12.4
	c42.9,0.3,77.9-34.2,78.2-77.1c0-0.4,0-0.7,0-1.1c0-1.2,0-2.4-0.1-3.6C133.7,43.8,138.3,39,142,33.4L142,33.4z"/>
</svg>
